<svg width="250" height="250" viewBox="0 0 250 250" fill="none" xmlns="http://www.w3.org/2000/svg">
<path d="M55.6252 0.000220713C48.3147 -0.0204016 41.0721 1.40431 34.3141 4.19242C27.556 6.98053 21.4158 11.0771 16.2464 16.2464C11.0771 21.4158 6.98053 27.556 4.19242 34.3141C1.40431 41.0721 -0.0204016 48.3147 0.000220713 55.6252V194.375C-0.0204016 201.686 1.40431 208.928 4.19242 215.686C6.98053 222.444 11.0771 228.585 16.2464 233.754C21.4158 238.923 27.556 243.02 34.3141 245.808C41.0721 248.596 48.3147 250.021 55.6252 250H194.375C201.686 250.021 208.928 248.596 215.686 245.808C222.444 243.02 228.585 238.923 233.754 233.754C238.923 228.585 243.02 222.444 245.808 215.686C248.596 208.928 250.021 201.686 250 194.375V55.6252C250.021 48.3147 248.596 41.0721 245.808 34.3141C243.02 27.556 238.923 21.4158 233.754 16.2464C228.585 11.0771 222.444 6.98053 215.686 4.19242C208.928 1.40431 201.686 -0.0204016 194.375 0.000220713H55.6252ZM123.571 26.7268C147.906 26.7268 169.914 36.133 186.688 53.7033C199.43 66.9299 206.586 80.9612 210.25 99.4455C211.508 105.594 211.508 122.352 210.321 129.266C206.43 151.251 194.385 170.957 176.594 184.446C170.25 189.25 154.742 197.594 152.258 197.594C151.321 197.594 151.25 196.656 151.656 192.789C152.43 186.602 153.156 185.344 156.656 183.875C162.227 181.563 171.75 174.758 177.571 168.946C187.746 158.773 194.974 146.032 198.485 132.078C200.68 123.485 200.391 104.399 197.992 95.5784C190.422 67.4924 167.469 45.6955 139.399 39.8283C131.266 38.1643 116.406 38.1643 108.149 39.8283C79.7424 45.6955 56.219 68.6018 49.0627 97.4143C47.1487 105.258 47.1487 124.352 49.0627 132.164C53.8205 151.25 66.1565 168.735 82.3049 179.156C85.4846 181.274 89.3049 183.43 90.8987 184.086C94.3909 185.586 95.1721 186.86 95.8127 192.992C96.219 196.781 96.133 197.836 95.2502 197.836C94.6799 197.836 90.4065 196 85.883 193.844L85.4768 193.524C59.719 180.867 43.2346 159.43 37.219 130.899C35.758 123.531 35.469 106 36.9377 99.2424C40.6799 81.094 47.844 66.9377 59.758 54.4065C76.9377 36.2893 99.0315 26.7268 123.602 26.7268H123.571ZM125 56.0315C128.863 56.0223 132.717 56.3886 136.508 57.1252C165.531 63.594 186.071 92.6174 182.078 121.414C180.492 133.047 176.508 142.578 169.43 151.446C165.93 155.922 157.422 163.414 155.922 163.414C155.672 163.414 155.43 160.563 155.43 157.141V150.828L159.742 145.664C176.094 126.094 174.922 98.7502 157.094 80.8518C150.18 73.8518 142.156 69.7346 131.821 67.8752C125.156 66.6174 123.766 66.6174 116.766 67.7893C106.11 69.5002 97.883 73.6018 90.5549 80.8518C72.6565 98.594 71.469 126.094 87.8362 145.664L92.1487 150.828V157.18C92.1487 160.68 91.8596 163.485 91.4924 163.485C91.2112 163.485 88.7658 161.821 86.1565 159.742L85.7893 159.617C77.1252 152.703 69.4768 140.453 66.2971 128.406C64.3908 121.125 64.3908 107.336 66.383 100.086C71.633 80.5158 86.0783 65.3362 106.063 58.219C110.336 56.7112 117.852 55.8987 124.938 56.0237L125 56.0315ZM123.617 87.1565C126.875 87.1565 130.086 87.8127 132.453 89.0315C137.492 91.6799 141.696 96.758 143.274 102.133C148.117 118.571 130.703 132.977 114.906 125.61H114.789C107.344 122.149 103.352 115.641 103.266 107.172C103.266 99.5237 107.492 92.8909 114.86 88.9846C117.18 87.7659 120.399 87.1487 123.649 87.1487L123.617 87.1565ZM123.531 136.438C133.836 136.399 141.274 140.055 144.039 146.524C146.11 151.367 145.344 166.625 141.758 191.328C139.36 208.578 138.016 212.93 134.688 215.867C130.086 219.93 123.617 221.078 117.43 218.875H117.399C109.953 216.188 108.36 212.563 105.266 191.321C101.735 166.625 100.953 151.36 103.039 146.516C105.758 140.086 113.164 136.477 123.539 136.43L123.531 136.438Z" fill="#8F4A99"/>
</svg>
