<svg width="413" height="350" viewBox="0 0 413 350" fill="none" xmlns="http://www.w3.org/2000/svg">
<path d="M251.383 325.999L251.791 316.837C256.052 314.567 260.804 313.368 265.634 313.344C258.986 318.763 259.817 329.21 255.309 336.497C253.886 338.759 251.97 340.673 249.704 342.097C247.438 343.521 244.879 344.418 242.218 344.722L236.654 348.118C235.891 343.875 236.059 339.517 237.148 335.345C238.236 331.173 240.219 327.286 242.959 323.951C244.515 322.096 246.3 320.443 248.27 319.032C249.602 322.535 251.383 325.999 251.383 325.999Z" fill="#F2F2F2"/>
<path d="M401.77 91.4868H305.422C302.444 91.4834 299.59 90.3027 297.485 88.2037C295.379 86.1047 294.195 83.2588 294.192 80.2904V27.973C294.195 25.0047 295.379 22.1589 297.485 20.06C299.59 17.9611 302.444 16.7806 305.422 16.7773H401.77C404.747 16.7806 407.602 17.9611 409.707 20.06C411.812 22.1589 412.997 25.0047 413 27.973V80.2904C412.997 83.2588 411.812 86.1047 409.707 88.2037C407.602 90.3027 404.747 91.4834 401.77 91.4868Z" fill="#F2F2F2"/>
<path d="M254.674 91.4868H158.326C155.349 91.4834 152.494 90.3027 150.389 88.2037C148.283 86.1047 147.099 83.2588 147.096 80.2904V27.973C147.099 25.0047 148.284 22.1589 150.389 20.06C152.494 17.9611 155.349 16.7806 158.326 16.7773H254.674C257.651 16.7806 260.506 17.9611 262.611 20.06C264.717 22.1589 265.901 25.0047 265.904 27.973V80.2904C265.901 83.2588 264.717 86.1047 262.611 88.2037C260.506 90.3027 257.652 91.4834 254.674 91.4868Z" fill="#F2F2F2"/>
<path d="M107.578 91.4868H11.23C8.25259 91.4834 5.39812 90.3027 3.29282 88.2037C1.18752 86.1047 0.00331316 83.2588 0 80.2904V27.973C0.003341 25.0047 1.18758 22.1589 3.2929 20.06C5.39822 17.9611 8.25266 16.7806 11.23 16.7773H107.578C110.556 16.7806 113.41 17.9611 115.515 20.06C117.621 22.1589 118.805 25.0047 118.808 27.973V80.2904C118.805 83.2588 117.621 86.1047 115.515 88.2037C113.41 90.3027 110.556 91.4834 107.578 91.4868Z" fill="#F2F2F2"/>
<path d="M254.674 92.239H158.326C155.149 92.2353 152.102 90.9753 149.856 88.7353C147.609 86.4953 146.345 83.4583 146.342 80.2905V27.9731C146.345 24.8055 147.609 21.7686 149.856 19.5287C152.103 17.2888 155.149 16.0289 158.326 16.0254H254.674C257.851 16.0289 260.898 17.2888 263.144 19.5287C265.391 21.7686 266.655 24.8055 266.659 27.9731V80.2905C266.655 83.4583 265.391 86.4953 263.145 88.7353C260.898 90.9753 257.852 92.2353 254.674 92.239ZM158.326 17.5295C155.549 17.5326 152.886 18.6339 150.922 20.5918C148.958 22.5497 147.854 25.2042 147.85 27.9731V80.2905C147.853 83.0595 148.958 85.7142 150.922 87.6722C152.886 89.6302 155.549 90.7316 158.326 90.7348H254.674C257.452 90.7316 260.114 89.6302 262.078 87.6722C264.042 85.7142 265.147 83.0595 265.15 80.2905V27.9731C265.147 25.2042 264.042 22.5497 262.078 20.5918C260.114 18.6339 257.451 17.5326 254.674 17.5295H158.326Z" fill="#C776D3"/>
<path d="M77.6085 18.4861H77.219V7.83343C77.219 6.19825 76.5674 4.63004 75.4077 3.47379C74.2479 2.31754 72.675 1.66797 71.0348 1.66797H48.3968C47.5847 1.66796 46.7805 1.82742 46.0302 2.13725C45.2799 2.44708 44.5981 2.90121 44.0239 3.47372C43.4496 4.04623 42.9941 4.72589 42.6833 5.47391C42.3725 6.22194 42.2125 7.02366 42.2125 7.83332V66.2749C42.2125 67.9101 42.8641 69.4783 44.0238 70.6345C45.1836 71.7908 46.7565 72.4403 48.3967 72.4403H71.0345C71.8466 72.4403 72.6508 72.2809 73.4011 71.971C74.1514 71.6612 74.8331 71.207 75.4074 70.6345C75.9816 70.062 76.4371 69.3823 76.7479 68.6343C77.0587 67.8863 77.2187 67.0845 77.2187 66.2749V26.0689H77.6082L77.6085 18.4861Z" fill="#E6E6E6"/>
<path d="M70.5947 58.6481H49.2589C48.4916 58.6473 47.7559 58.343 47.2133 57.802C46.6707 57.2611 46.3655 56.5276 46.3646 55.7626V25.8385C46.3686 22.3452 47.7623 18.996 50.24 16.5258C52.7176 14.0556 56.0769 12.6661 59.5809 12.6621H70.5948C71.3621 12.663 72.0977 12.9673 72.6403 13.5082C73.1829 14.0492 73.4881 14.7826 73.489 15.5476V55.7626C73.4881 56.5276 73.183 57.2611 72.6404 57.802C72.0978 58.343 71.3621 58.6473 70.5947 58.6481Z" fill="#F2F2F2"/>
<path d="M47.9809 65.8518C48.8292 65.8518 49.5169 65.1662 49.5169 64.3205C49.5169 63.4747 48.8292 62.7891 47.9809 62.7891C47.1325 62.7891 46.4448 63.4747 46.4448 64.3205C46.4448 65.1662 47.1325 65.8518 47.9809 65.8518Z" fill="#E6E6E6"/>
<path d="M214.666 41.6973H197.702C197.61 41.6963 197.519 41.7104 197.432 41.739C197.248 41.7957 197.087 41.9098 196.973 42.0646C196.859 42.2193 196.797 42.4065 196.797 42.5987V69.3177H215.573V42.5987C215.573 42.4801 215.549 42.3628 215.503 42.2533C215.458 42.1438 215.391 42.0444 215.307 41.9607C215.222 41.8769 215.123 41.8106 215.013 41.7654C214.903 41.7202 214.785 41.6971 214.666 41.6973ZM208.246 54.8797C208.246 55.3131 208.103 55.7344 207.838 56.0781C207.585 56.4115 207.234 56.6575 206.833 56.7813C206.433 56.9051 206.003 56.9005 205.606 56.7682C205.208 56.6358 204.862 56.3824 204.616 56.0436C204.371 55.7048 204.238 55.2977 204.237 54.8797V51.7795C204.242 51.2527 204.455 50.7492 204.831 50.3785C205.206 50.0077 205.713 49.7998 206.241 49.7998C206.77 49.7998 207.277 50.0077 207.652 50.3785C208.027 50.7492 208.241 51.2527 208.246 51.7795V54.8797Z" fill="#2F2E41"/>
<path d="M196.74 68.4629V71.0395C196.74 71.1731 196.793 71.3012 196.888 71.3959C196.982 71.4906 197.11 71.5442 197.244 71.5449H215.126C215.26 71.5438 215.388 71.4901 215.482 71.3954C215.577 71.3008 215.63 71.1729 215.63 71.0395V68.4629H196.74Z" fill="#3F3D56"/>
<path d="M242.757 0H170.243C169.62 0.000787944 169.023 0.247716 168.582 0.686698C168.141 1.12568 167.893 1.72093 167.891 2.34209V51.1272C167.892 51.7489 168.14 52.345 168.581 52.7846C169.022 53.2242 169.62 53.4714 170.243 53.4719H242.757C243.38 53.4714 243.978 53.2242 244.419 52.7846C244.86 52.345 245.108 51.7489 245.109 51.1272V2.34209C245.107 1.72093 244.859 1.12568 244.418 0.686698C243.977 0.247716 243.38 0.000790981 242.757 0Z" fill="#3F3D56"/>
<path d="M242.151 1.69336H170.847C170.513 1.69408 170.194 1.8267 169.958 2.06211C169.722 2.29752 169.59 2.6165 169.59 2.94907V50.5254C169.591 50.8576 169.723 51.176 169.959 51.4108C170.194 51.6457 170.514 51.7779 170.847 51.7785H242.151C242.484 51.7779 242.803 51.6457 243.039 51.4108C243.274 51.176 243.407 50.8576 243.408 50.5254V2.94907C243.407 2.6165 243.275 2.29752 243.039 2.06211C242.804 1.8267 242.484 1.69409 242.151 1.69336Z" fill="#C776D3"/>
<path d="M229.027 71.5034L228.369 68.385C228.342 68.2578 228.283 68.1395 228.198 68.0408C228.113 67.942 228.005 67.866 227.883 67.8197C227.795 67.7852 227.701 67.7675 227.606 67.7676H186.499C186.404 67.7675 186.311 67.7852 186.222 67.8197C186.1 67.866 185.992 67.942 185.907 68.0408C185.822 68.1395 185.764 68.2578 185.736 68.385L185.078 71.5034C185.054 71.6166 185.056 71.7337 185.083 71.8461C185.11 71.9585 185.162 72.0635 185.236 72.1533C185.309 72.2431 185.401 72.3156 185.506 72.3654C185.61 72.4152 185.725 72.4411 185.841 72.4413H228.262C228.378 72.4419 228.493 72.4162 228.598 72.3661C228.703 72.316 228.796 72.2428 228.868 72.1521C228.941 72.0626 228.994 71.9579 229.021 71.8457C229.049 71.7335 229.051 71.6166 229.027 71.5034Z" fill="#2F2E41"/>
<path d="M187.904 68.3281H187.004C186.892 68.3281 186.801 68.419 186.801 68.531V68.9068C186.801 69.0189 186.892 69.1097 187.004 69.1097H187.904C188.016 69.1097 188.107 69.0189 188.107 68.9068V68.531C188.107 68.419 188.016 68.3281 187.904 68.3281Z" fill="#3F3D56"/>
<path d="M190.517 68.3281H189.617C189.505 68.3281 189.414 68.419 189.414 68.531V68.9068C189.414 69.0189 189.505 69.1097 189.617 69.1097H190.517C190.629 69.1097 190.72 69.0189 190.72 68.9068V68.531C190.72 68.419 190.629 68.3281 190.517 68.3281Z" fill="#3F3D56"/>
<path d="M193.13 68.3281H192.23C192.118 68.3281 192.027 68.419 192.027 68.531V68.9068C192.027 69.0189 192.118 69.1097 192.23 69.1097H193.13C193.242 69.1097 193.333 69.0189 193.333 68.9068V68.531C193.333 68.419 193.242 68.3281 193.13 68.3281Z" fill="#3F3D56"/>
<path d="M195.743 68.3281H194.843C194.731 68.3281 194.64 68.419 194.64 68.531V68.9068C194.64 69.0189 194.731 69.1097 194.843 69.1097H195.743C195.855 69.1097 195.946 69.0189 195.946 68.9068V68.531C195.946 68.419 195.855 68.3281 195.743 68.3281Z" fill="#3F3D56"/>
<path d="M198.356 68.3281H197.457C197.344 68.3281 197.253 68.419 197.253 68.531V68.9068C197.253 69.0189 197.344 69.1097 197.457 69.1097H198.356C198.469 69.1097 198.56 69.0189 198.56 68.9068V68.531C198.56 68.419 198.469 68.3281 198.356 68.3281Z" fill="#3F3D56"/>
<path d="M200.969 68.3281H200.07C199.957 68.3281 199.866 68.419 199.866 68.531V68.9068C199.866 69.0189 199.957 69.1097 200.07 69.1097H200.969C201.082 69.1097 201.173 69.0189 201.173 68.9068V68.531C201.173 68.419 201.082 68.3281 200.969 68.3281Z" fill="#3F3D56"/>
<path d="M203.582 68.3281H202.683C202.57 68.3281 202.479 68.419 202.479 68.531V68.9068C202.479 69.0189 202.57 69.1097 202.683 69.1097H203.582C203.695 69.1097 203.786 69.0189 203.786 68.9068V68.531C203.786 68.419 203.695 68.3281 203.582 68.3281Z" fill="#3F3D56"/>
<path d="M206.195 68.3281H205.296C205.183 68.3281 205.092 68.419 205.092 68.531V68.9068C205.092 69.0189 205.183 69.1097 205.296 69.1097H206.195C206.308 69.1097 206.399 69.0189 206.399 68.9068V68.531C206.399 68.419 206.308 68.3281 206.195 68.3281Z" fill="#3F3D56"/>
<path d="M208.808 68.3281H207.909C207.797 68.3281 207.705 68.419 207.705 68.531V68.9068C207.705 69.0189 207.797 69.1097 207.909 69.1097H208.808C208.921 69.1097 209.012 69.0189 209.012 68.9068V68.531C209.012 68.419 208.921 68.3281 208.808 68.3281Z" fill="#3F3D56"/>
<path d="M211.422 68.3281H210.522C210.41 68.3281 210.318 68.419 210.318 68.531V68.9068C210.318 69.0189 210.41 69.1097 210.522 69.1097H211.422C211.534 69.1097 211.625 69.0189 211.625 68.9068V68.531C211.625 68.419 211.534 68.3281 211.422 68.3281Z" fill="#3F3D56"/>
<path d="M214.035 68.3281H213.135C213.023 68.3281 212.932 68.419 212.932 68.531V68.9068C212.932 69.0189 213.023 69.1097 213.135 69.1097H214.035C214.147 69.1097 214.238 69.0189 214.238 68.9068V68.531C214.238 68.419 214.147 68.3281 214.035 68.3281Z" fill="#3F3D56"/>
<path d="M216.648 68.3281H215.748C215.636 68.3281 215.545 68.419 215.545 68.531V68.9068C215.545 69.0189 215.636 69.1097 215.748 69.1097H216.648C216.76 69.1097 216.851 69.0189 216.851 68.9068V68.531C216.851 68.419 216.76 68.3281 216.648 68.3281Z" fill="#3F3D56"/>
<path d="M219.261 68.3281H218.361C218.249 68.3281 218.158 68.419 218.158 68.531V68.9068C218.158 69.0189 218.249 69.1097 218.361 69.1097H219.261C219.373 69.1097 219.464 69.0189 219.464 68.9068V68.531C219.464 68.419 219.373 68.3281 219.261 68.3281Z" fill="#3F3D56"/>
<path d="M221.874 68.3281H220.974C220.862 68.3281 220.771 68.419 220.771 68.531V68.9068C220.771 69.0189 220.862 69.1097 220.974 69.1097H221.874C221.986 69.1097 222.077 69.0189 222.077 68.9068V68.531C222.077 68.419 221.986 68.3281 221.874 68.3281Z" fill="#3F3D56"/>
<path d="M224.487 68.3281H223.588C223.475 68.3281 223.384 68.419 223.384 68.531V68.9068C223.384 69.0189 223.475 69.1097 223.588 69.1097H224.487C224.599 69.1097 224.691 69.0189 224.691 68.9068V68.531C224.691 68.419 224.599 68.3281 224.487 68.3281Z" fill="#3F3D56"/>
<path d="M227.1 68.3281H226.201C226.088 68.3281 225.997 68.419 225.997 68.531V68.9068C225.997 69.0189 226.088 69.1097 226.201 69.1097H227.1C227.213 69.1097 227.304 69.0189 227.304 68.9068V68.531C227.304 68.419 227.213 68.3281 227.1 68.3281Z" fill="#3F3D56"/>
<path d="M187.873 69.6309H186.973C186.861 69.6309 186.77 69.7217 186.77 69.8337V70.2095C186.77 70.3216 186.861 70.4124 186.973 70.4124H187.873C187.985 70.4124 188.076 70.3216 188.076 70.2095V69.8337C188.076 69.7217 187.985 69.6309 187.873 69.6309Z" fill="#3F3D56"/>
<path d="M190.486 69.6309H189.586C189.474 69.6309 189.383 69.7217 189.383 69.8337V70.2095C189.383 70.3216 189.474 70.4124 189.586 70.4124H190.486C190.598 70.4124 190.689 70.3216 190.689 70.2095V69.8337C190.689 69.7217 190.598 69.6309 190.486 69.6309Z" fill="#3F3D56"/>
<path d="M193.099 69.6309H192.199C192.087 69.6309 191.996 69.7217 191.996 69.8337V70.2095C191.996 70.3216 192.087 70.4124 192.199 70.4124H193.099C193.211 70.4124 193.302 70.3216 193.302 70.2095V69.8337C193.302 69.7217 193.211 69.6309 193.099 69.6309Z" fill="#3F3D56"/>
<path d="M195.712 69.6309H194.813C194.7 69.6309 194.609 69.7217 194.609 69.8337V70.2095C194.609 70.3216 194.7 70.4124 194.813 70.4124H195.712C195.824 70.4124 195.916 70.3216 195.916 70.2095V69.8337C195.916 69.7217 195.824 69.6309 195.712 69.6309Z" fill="#3F3D56"/>
<path d="M198.325 69.6309H197.426C197.313 69.6309 197.222 69.7217 197.222 69.8337V70.2095C197.222 70.3216 197.313 70.4124 197.426 70.4124H198.325C198.438 70.4124 198.529 70.3216 198.529 70.2095V69.8337C198.529 69.7217 198.438 69.6309 198.325 69.6309Z" fill="#3F3D56"/>
<path d="M200.938 69.6309H200.039C199.926 69.6309 199.835 69.7217 199.835 69.8337V70.2095C199.835 70.3216 199.926 70.4124 200.039 70.4124H200.938C201.051 70.4124 201.142 70.3216 201.142 70.2095V69.8337C201.142 69.7217 201.051 69.6309 200.938 69.6309Z" fill="#3F3D56"/>
<path d="M203.551 69.6309H202.652C202.539 69.6309 202.448 69.7217 202.448 69.8337V70.2095C202.448 70.3216 202.539 70.4124 202.652 70.4124H203.551C203.664 70.4124 203.755 70.3216 203.755 70.2095V69.8337C203.755 69.7217 203.664 69.6309 203.551 69.6309Z" fill="#3F3D56"/>
<path d="M206.164 69.6309H205.265C205.152 69.6309 205.061 69.7217 205.061 69.8337V70.2095C205.061 70.3216 205.152 70.4124 205.265 70.4124H206.164C206.277 70.4124 206.368 70.3216 206.368 70.2095V69.8337C206.368 69.7217 206.277 69.6309 206.164 69.6309Z" fill="#3F3D56"/>
<path d="M208.778 69.6309H207.878C207.766 69.6309 207.675 69.7217 207.675 69.8337V70.2095C207.675 70.3216 207.766 70.4124 207.878 70.4124H208.778C208.89 70.4124 208.981 70.3216 208.981 70.2095V69.8337C208.981 69.7217 208.89 69.6309 208.778 69.6309Z" fill="#3F3D56"/>
<path d="M211.391 69.6309H210.491C210.379 69.6309 210.288 69.7217 210.288 69.8337V70.2095C210.288 70.3216 210.379 70.4124 210.491 70.4124H211.391C211.503 70.4124 211.594 70.3216 211.594 70.2095V69.8337C211.594 69.7217 211.503 69.6309 211.391 69.6309Z" fill="#3F3D56"/>
<path d="M214.004 69.6309H213.104C212.992 69.6309 212.901 69.7217 212.901 69.8337V70.2095C212.901 70.3216 212.992 70.4124 213.104 70.4124H214.004C214.116 70.4124 214.207 70.3216 214.207 70.2095V69.8337C214.207 69.7217 214.116 69.6309 214.004 69.6309Z" fill="#3F3D56"/>
<path d="M216.617 69.6309H215.717C215.605 69.6309 215.514 69.7217 215.514 69.8337V70.2095C215.514 70.3216 215.605 70.4124 215.717 70.4124H216.617C216.729 70.4124 216.82 70.3216 216.82 70.2095V69.8337C216.82 69.7217 216.729 69.6309 216.617 69.6309Z" fill="#3F3D56"/>
<path d="M219.23 69.6309H218.33C218.218 69.6309 218.127 69.7217 218.127 69.8337V70.2095C218.127 70.3216 218.218 70.4124 218.33 70.4124H219.23C219.342 70.4124 219.434 70.3216 219.434 70.2095V69.8337C219.434 69.7217 219.342 69.6309 219.23 69.6309Z" fill="#3F3D56"/>
<path d="M221.843 69.6309H220.943C220.831 69.6309 220.74 69.7217 220.74 69.8337V70.2095C220.74 70.3216 220.831 70.4124 220.943 70.4124H221.843C221.955 70.4124 222.047 70.3216 222.047 70.2095V69.8337C222.047 69.7217 221.955 69.6309 221.843 69.6309Z" fill="#3F3D56"/>
<path d="M224.456 69.6309H223.557C223.444 69.6309 223.353 69.7217 223.353 69.8337V70.2095C223.353 70.3216 223.444 70.4124 223.557 70.4124H224.456C224.569 70.4124 224.66 70.3216 224.66 70.2095V69.8337C224.66 69.7217 224.569 69.6309 224.456 69.6309Z" fill="#3F3D56"/>
<path d="M227.069 69.6309H226.17C226.057 69.6309 225.966 69.7217 225.966 69.8337V70.2095C225.966 70.3216 226.057 70.4124 226.17 70.4124H227.069C227.182 70.4124 227.273 70.3216 227.273 70.2095V69.8337C227.273 69.7217 227.182 69.6309 227.069 69.6309Z" fill="#3F3D56"/>
<path d="M209.562 71.1934H199.516C199.404 71.1934 199.313 71.2842 199.313 71.3962V71.7721C199.313 71.8841 199.404 71.9749 199.516 71.9749H209.562C209.674 71.9749 209.765 71.8841 209.765 71.7721V71.3962C209.765 71.2842 209.674 71.1934 209.562 71.1934Z" fill="#3F3D56"/>
<path d="M238.567 8.24779H171.849C171.78 8.24628 171.714 8.21774 171.665 8.1683C171.617 8.11886 171.589 8.05244 171.589 7.98327C171.589 7.91411 171.617 7.84769 171.665 7.79825C171.714 7.74881 171.78 7.72026 171.849 7.71875H238.567C238.637 7.72026 238.703 7.74881 238.751 7.79825C238.8 7.84769 238.827 7.91411 238.827 7.98327C238.827 8.05244 238.8 8.11886 238.751 8.1683C238.703 8.21774 238.637 8.24628 238.567 8.24779Z" fill="#3F3D56"/>
<path d="M176.39 6.36678C177.249 6.36678 177.945 5.65726 177.945 4.78202C177.945 3.90679 177.249 3.19727 176.39 3.19727C175.532 3.19727 174.836 3.90679 174.836 4.78202C174.836 5.65726 175.532 6.36678 176.39 6.36678Z" fill="#3F3D56"/>
<path d="M181.762 6.36678C182.621 6.36678 183.317 5.65726 183.317 4.78202C183.317 3.90679 182.621 3.19727 181.762 3.19727C180.903 3.19727 180.207 3.90679 180.207 4.78202C180.207 5.65726 180.903 6.36678 181.762 6.36678Z" fill="#3F3D56"/>
<path d="M187.134 6.36678C187.992 6.36678 188.688 5.65726 188.688 4.78202C188.688 3.90679 187.992 3.19727 187.134 3.19727C186.275 3.19727 185.579 3.90679 185.579 4.78202C185.579 5.65726 186.275 6.36678 187.134 6.36678Z" fill="#3F3D56"/>
<path d="M235.333 3.58984H231.518C231.442 3.59156 231.371 3.62264 231.318 3.67644C231.265 3.73024 231.236 3.80249 231.236 3.87772C231.236 3.95295 231.265 4.02519 231.318 4.07899C231.371 4.13279 231.442 4.16388 231.518 4.1656H235.333C235.409 4.16453 235.481 4.13372 235.535 4.07985C235.588 4.02598 235.618 3.95337 235.618 3.87772C235.618 3.80207 235.588 3.72945 235.535 3.67558C235.481 3.62171 235.409 3.59091 235.333 3.58984Z" fill="#3F3D56"/>
<path d="M235.333 4.67188H231.518C231.442 4.67359 231.371 4.70468 231.318 4.75848C231.265 4.81227 231.236 4.88452 231.236 4.95975C231.236 5.03498 231.265 5.10723 231.318 5.16102C231.371 5.21482 231.442 5.2459 231.518 5.24762H235.333C235.409 5.24655 235.481 5.21575 235.535 5.16188C235.588 5.10801 235.618 5.0354 235.618 4.95975C235.618 4.8841 235.588 4.81148 235.535 4.75761C235.481 4.70374 235.409 4.67295 235.333 4.67188Z" fill="#3F3D56"/>
<path d="M235.333 5.75195H231.518C231.442 5.75367 231.371 5.78475 231.318 5.83855C231.265 5.89235 231.236 5.9646 231.236 6.03983C231.236 6.11506 231.265 6.1873 231.318 6.2411C231.371 6.2949 231.442 6.32599 231.518 6.32771H235.333C235.409 6.32664 235.481 6.29584 235.535 6.24197C235.588 6.18809 235.618 6.11548 235.618 6.03983C235.618 5.96418 235.588 5.89156 235.535 5.83769C235.481 5.78382 235.409 5.75302 235.333 5.75195Z" fill="#3F3D56"/>
<path d="M380.163 35.6211H330.287C329.508 35.622 328.761 35.931 328.21 36.4803C327.659 37.0296 327.349 37.7745 327.348 38.5513V69.5099C327.349 70.2868 327.659 71.0316 328.21 71.5809C328.761 72.1302 329.508 72.4392 330.287 72.4401H380.163C380.942 72.4393 381.689 72.1303 382.24 71.5809C382.791 71.0316 383.101 70.2868 383.102 69.5099V38.5513C383.101 37.7744 382.791 37.0296 382.24 36.4803C381.689 35.931 380.942 35.622 380.163 35.6211Z" fill="#F2F2F2"/>
<path d="M380.163 35.6211H330.287C329.508 35.622 328.761 35.931 328.21 36.4803C327.659 37.0296 327.349 37.7745 327.348 38.5513V69.5099C327.349 70.2868 327.659 71.0316 328.21 71.5809C328.761 72.1302 329.508 72.4392 330.287 72.4401H380.163C380.942 72.4393 381.689 72.1303 382.24 71.5809C382.791 71.0316 383.101 70.2868 383.102 69.5099V38.5513C383.101 37.7744 382.791 37.0296 382.24 36.4803C381.689 35.931 380.942 35.622 380.163 35.6211ZM381.127 57.859C381.116 61.0108 379.865 64.0323 377.644 66.2755C375.424 68.5186 372.409 69.8047 369.249 69.8577C364.188 69.9234 372.049 69.949 365.945 69.949C351.988 69.949 337.434 69.8161 332.004 69.7298C331.29 69.7152 330.61 69.4226 330.109 68.9146C329.607 68.4067 329.325 67.7235 329.323 67.0111V38.5536C329.323 38.2985 329.425 38.0539 329.605 37.8733C329.786 37.6926 330.031 37.5907 330.287 37.5898H380.161C380.417 37.5901 380.662 37.6914 380.843 37.8716C381.024 38.0517 381.127 38.296 381.128 38.551L381.127 57.859Z" fill="#E6E6E6"/>
<path d="M374.023 17.7949H336.023C335.687 17.7954 335.359 17.8993 335.084 18.0925C334.81 18.2857 334.601 18.5587 334.488 18.8743L328.619 35.2899C328.532 35.5349 328.504 35.7973 328.539 36.055C328.575 36.3128 328.672 36.5583 328.822 36.771C328.972 36.9837 329.171 37.1573 329.403 37.2773C329.634 37.3972 329.891 37.46 330.152 37.4604L381.116 37.5506H381.119C381.388 37.5506 381.654 37.4838 381.891 37.3564C382.129 37.2289 382.331 37.0446 382.479 36.8201C382.628 36.5957 382.718 36.3379 382.742 36.0701C382.766 35.8023 382.723 35.5327 382.617 35.2856L382.528 35.3235L382.617 35.2856L375.521 18.7798C375.396 18.4873 375.187 18.2381 374.921 18.063C374.654 17.8879 374.342 17.7947 374.023 17.7949Z" fill="#E6E6E6"/>
<path d="M382.749 35.6411C382.748 35.8612 382.704 36.079 382.617 36.2814L375.522 48.9871C375.395 49.2789 375.186 49.5275 374.92 49.7023C374.654 49.8771 374.342 49.9704 374.023 49.9708H336.024C335.688 49.9705 335.36 49.8667 335.085 49.6737C334.81 49.4806 334.601 49.2077 334.487 48.8921L328.62 36.277C328.548 36.076 328.516 35.8629 328.527 35.6498C328.538 35.4366 328.59 35.2277 328.682 35.0349C328.774 34.8422 328.903 34.6693 329.062 34.5263C329.221 34.3832 329.406 34.2728 329.608 34.2013C329.782 34.1385 329.966 34.1063 330.152 34.1063L336.377 34.0946L338.918 34.0902L372.353 34.0317L374.896 34.0273L381.117 34.0156H381.118C381.551 34.0157 381.965 34.187 382.271 34.4918C382.577 34.7966 382.749 35.21 382.749 35.6411Z" fill="#E6E6E6"/>
<path d="M334.026 58.8438C334.78 58.8438 345.128 59.4742 345.128 60.2255C345.128 60.9767 334.78 61.5643 334.026 61.5643C333.665 61.5643 333.317 61.421 333.062 61.1659C332.806 60.9108 332.662 60.5648 332.662 60.204C332.662 59.8432 332.806 59.4973 333.062 59.2422C333.317 58.9871 333.665 58.8438 334.026 58.8438Z" fill="#E6E6E6"/>
<path d="M371.657 7.80859H339.616C338.757 7.80958 337.934 8.1501 337.327 8.75545C336.72 9.3608 336.378 10.1815 336.377 11.0376V49.9719H374.023C374.332 49.9728 374.635 49.885 374.896 49.719V11.0376C374.895 10.1815 374.553 9.3608 373.946 8.75546C373.339 8.15011 372.516 7.80959 371.657 7.80859Z" fill="#F2F2F2"/>
<path d="M359.427 10.4258H341.868C341.086 10.4265 340.337 10.7364 339.784 11.2875C339.231 11.8386 338.919 12.5859 338.918 13.3654V49.971H372.353V23.3127C372.349 19.8961 370.986 16.6206 368.563 14.2046C366.14 11.7887 362.854 10.4297 359.427 10.4258Z" fill="white"/>
<path d="M366.657 46.7207H344.614C344.52 46.7204 344.426 46.7388 344.339 46.7746C344.251 46.8105 344.172 46.8632 344.105 46.9298C344.038 46.9963 343.985 47.0754 343.949 47.1624C343.912 47.2494 343.894 47.3427 343.894 47.437C343.894 47.5312 343.912 47.6245 343.949 47.7115C343.985 47.7986 344.038 47.8776 344.105 47.9442C344.172 48.0107 344.251 48.0634 344.339 48.0993C344.426 48.1352 344.52 48.1535 344.614 48.1532H366.657C366.752 48.1535 366.845 48.1352 366.933 48.0993C367.02 48.0634 367.099 48.0107 367.166 47.9442C367.233 47.8776 367.286 47.7986 367.323 47.7115C367.359 47.6245 367.378 47.5312 367.378 47.437C367.378 47.3427 367.359 47.2494 367.323 47.1624C367.286 47.0754 367.233 46.9963 367.166 46.9298C367.099 46.8632 367.02 46.8105 366.933 46.7746C366.845 46.7388 366.752 46.7204 366.657 46.7207Z" fill="#E4E4E4"/>
<path d="M366.657 43.8867H344.614C344.424 43.8873 344.241 43.963 344.107 44.0974C343.973 44.2318 343.897 44.4139 343.897 44.6037C343.897 44.7935 343.973 44.9756 344.107 45.11C344.241 45.2444 344.424 45.3202 344.614 45.3207H366.657C366.752 45.321 366.845 45.3026 366.933 45.2667C367.02 45.2308 367.1 45.178 367.167 45.1114C367.234 45.0448 367.287 44.9657 367.323 44.8786C367.36 44.7914 367.378 44.698 367.378 44.6037C367.378 44.5094 367.36 44.416 367.323 44.3289C367.287 44.2417 367.234 44.1626 367.167 44.096C367.1 44.0294 367.02 43.9766 366.933 43.9407C366.845 43.9048 366.752 43.8865 366.657 43.8867Z" fill="#E4E4E4"/>
<path d="M354.169 41.0566H344.614C344.52 41.0564 344.426 41.0747 344.339 41.1106C344.251 41.1465 344.172 41.1992 344.105 41.2657C344.038 41.3323 343.985 41.4113 343.949 41.4983C343.912 41.5854 343.894 41.6787 343.894 41.7729C343.894 41.8672 343.912 41.9605 343.949 42.0475C343.985 42.1345 344.038 42.2136 344.105 42.2801C344.172 42.3467 344.251 42.3994 344.339 42.4353C344.426 42.4711 344.52 42.4895 344.614 42.4892H354.169C354.264 42.4895 354.358 42.4711 354.445 42.4353C354.532 42.3994 354.612 42.3467 354.679 42.2801C354.746 42.2136 354.799 42.1345 354.835 42.0475C354.871 41.9605 354.89 41.8672 354.89 41.7729C354.89 41.6787 354.871 41.5854 354.835 41.4983C354.799 41.4113 354.746 41.3323 354.679 41.2657C354.612 41.1992 354.532 41.1465 354.445 41.1106C354.358 41.0747 354.264 41.0564 354.169 41.0566Z" fill="#E4E4E4"/>
<path d="M366.657 35.125H344.614C344.424 35.1255 344.241 35.2013 344.107 35.3357C343.973 35.4701 343.897 35.6522 343.897 35.842C343.897 36.0318 343.973 36.2139 344.107 36.3483C344.241 36.4827 344.424 36.5585 344.614 36.559H366.657C366.752 36.5593 366.845 36.5409 366.933 36.505C367.02 36.4691 367.1 36.4163 367.167 36.3497C367.234 36.2831 367.287 36.204 367.323 36.1169C367.36 36.0297 367.378 35.9363 367.378 35.842C367.378 35.7477 367.36 35.6543 367.323 35.5672C367.287 35.48 367.234 35.4009 367.167 35.3343C367.1 35.2677 367.02 35.2149 366.933 35.179C366.845 35.1431 366.752 35.1247 366.657 35.125Z" fill="#E4E4E4"/>
<path d="M366.657 32.293H344.614C344.52 32.2927 344.426 32.311 344.339 32.3469C344.251 32.3828 344.172 32.4355 344.105 32.502C344.038 32.5686 343.985 32.6476 343.949 32.7347C343.912 32.8217 343.894 32.915 343.894 33.0092C343.894 33.1035 343.912 33.1968 343.949 33.2838C343.985 33.3708 344.038 33.4499 344.105 33.5164C344.172 33.583 344.251 33.6357 344.339 33.6716C344.426 33.7074 344.52 33.7258 344.614 33.7255H366.657C366.752 33.7258 366.845 33.7074 366.933 33.6716C367.02 33.6357 367.099 33.583 367.166 33.5164C367.233 33.4499 367.286 33.3708 367.323 33.2838C367.359 33.1968 367.378 33.1035 367.378 33.0092C367.378 32.915 367.359 32.8217 367.323 32.7347C367.286 32.6476 367.233 32.5686 367.166 32.502C367.099 32.4355 367.02 32.3828 366.933 32.3469C366.845 32.311 366.752 32.2927 366.657 32.293Z" fill="#E4E4E4"/>
<path d="M354.17 29.459H344.614C344.424 29.4595 344.241 29.5353 344.107 29.6697C343.973 29.8041 343.897 29.9862 343.897 30.176C343.897 30.3658 343.973 30.5479 344.107 30.6823C344.241 30.8167 344.424 30.8924 344.614 30.893H354.17C354.264 30.8933 354.358 30.8749 354.445 30.839C354.533 30.8031 354.612 30.7503 354.679 30.6837C354.746 30.6171 354.8 30.538 354.836 30.4508C354.872 30.3637 354.891 30.2703 354.891 30.176C354.891 30.0817 354.872 29.9883 354.836 29.9011C354.8 29.814 354.746 29.7349 354.679 29.6683C354.612 29.6017 354.533 29.5489 354.445 29.513C354.358 29.4771 354.264 29.4587 354.17 29.459Z" fill="#E4E4E4"/>
<path d="M366.657 23.5273H344.614C344.424 23.5273 344.241 23.6029 344.106 23.7373C343.971 23.8718 343.895 24.0542 343.895 24.2443C343.895 24.4345 343.971 24.6169 344.106 24.7513C344.241 24.8858 344.424 24.9613 344.614 24.9613H366.657C366.848 24.9613 367.031 24.8858 367.166 24.7513C367.301 24.6169 367.376 24.4345 367.376 24.2443C367.376 24.0542 367.301 23.8718 367.166 23.7373C367.031 23.6029 366.848 23.5273 366.657 23.5273Z" fill="#E4E4E4"/>
<path d="M366.657 20.6973H344.614C344.424 20.6973 344.241 20.7728 344.106 20.9073C343.971 21.0417 343.895 21.2241 343.895 21.4143C343.895 21.6044 343.971 21.7868 344.106 21.9213C344.241 22.0557 344.424 22.1313 344.614 22.1313H366.657C366.848 22.1313 367.031 22.0557 367.166 21.9213C367.301 21.7868 367.376 21.6044 367.376 21.4143C367.376 21.2241 367.301 21.0417 367.166 20.9073C367.031 20.7728 366.848 20.6973 366.657 20.6973Z" fill="#E4E4E4"/>
<path d="M354.17 17.8633H344.614C344.424 17.8638 344.241 17.9396 344.107 18.074C343.973 18.2084 343.897 18.3905 343.897 18.5803C343.897 18.7701 343.973 18.9522 344.107 19.0866C344.241 19.221 344.424 19.2967 344.614 19.2973H354.17C354.264 19.2976 354.358 19.2792 354.445 19.2433C354.533 19.2074 354.612 19.1546 354.679 19.088C354.746 19.0214 354.8 18.9423 354.836 18.8551C354.872 18.768 354.891 18.6746 354.891 18.5803C354.891 18.486 354.872 18.3926 354.836 18.3054C354.8 18.2183 354.746 18.1392 354.679 18.0726C354.612 18.006 354.533 17.9532 354.445 17.9173C354.358 17.8814 354.264 17.863 354.17 17.8633Z" fill="#E4E4E4"/>
<path d="M228.325 69.7804C227.94 70.4671 227.712 71.2294 227.655 72.0137C227.598 72.798 227.715 73.5852 227.996 74.3198C228.278 75.0543 228.717 75.7185 229.284 76.2654C229.851 76.8123 230.531 77.2287 231.276 77.4852L231.309 96.5993L239.616 91.1171L238.312 73.8065C238.661 72.5292 238.528 71.1686 237.939 69.9825C237.349 68.7964 236.343 67.8672 235.112 67.3709C233.881 66.8746 232.51 66.8458 231.259 67.2899C230.008 67.734 228.964 68.6201 228.325 69.7804Z" fill="#A0616A"/>
<path d="M170.76 335.818L176.811 338.389L189.636 316.343L180.705 312.549L170.76 335.818Z" fill="#A0616A"/>
<path d="M220.763 341.527L227.34 341.526L230.469 316.232L220.762 316.233L220.763 341.527Z" fill="#A0616A"/>
<path d="M220.531 348.368L240.758 348.367V348.112C240.757 346.03 239.928 344.034 238.452 342.562C236.975 341.09 234.973 340.263 232.885 340.263H232.884L229.19 337.469L222.297 340.264L220.531 340.264L220.531 348.368Z" fill="#2F2E41"/>
<path d="M167.08 340.198L185.687 348.103L185.788 347.869C186.606 345.954 186.628 343.793 185.849 341.862C185.069 339.931 183.553 338.387 181.632 337.571L181.631 337.571L179.332 333.556L171.891 333.432L170.267 332.742L167.08 340.198Z" fill="#2F2E41"/>
<path d="M227.215 191.831L237.211 252.516L234.491 261.559L238.06 267.963L232.818 324.21L234.946 328.881L229 332.536H216.902L216.26 281.616L213.271 274.14V270.019L207.188 238.969L206.539 277.529L204.596 281.264L187.197 326.675H173.63L174.68 318.617C172.249 317.39 178.329 313.804 178.913 311.151L176.916 306.67L178.913 298.206L183.514 274.667L178.813 246.756L180.497 228.791L179.62 222.646L179.687 220.658C179.687 220.658 182.006 219.766 179.791 217.54C176.725 200.213 180.497 196.452 180.497 196.452L195.592 187.645L227.215 191.831Z" fill="#2F2E41"/>
<path d="M202.871 111.913C210.443 111.913 216.581 105.793 216.581 98.2445C216.581 90.6957 210.443 84.5762 202.871 84.5762C195.299 84.5762 189.161 90.6957 189.161 98.2445C189.161 105.793 195.299 111.913 202.871 111.913Z" fill="#A0616A"/>
<path d="M185.683 72.0229C185.747 72.8066 185.639 73.5949 185.365 74.3323C185.091 75.0696 184.658 75.7381 184.097 76.2907C183.536 76.8432 182.86 77.2664 182.117 77.5304C181.374 77.7943 180.582 77.8927 179.797 77.8185L171.831 95.2047L166.544 86.7855L174.919 71.5661C175.132 70.2592 175.818 69.0755 176.847 68.2392C177.877 67.4029 179.178 66.972 180.505 67.0283C181.831 67.0846 183.091 67.6242 184.045 68.5447C185 69.4652 185.582 70.7028 185.683 72.0229Z" fill="#A0616A"/>
<path d="M173.7 129.303L185.127 123.861C185.245 123.804 185.354 123.731 185.45 123.642L193.427 116.266C193.664 116.047 193.974 115.924 194.297 115.921L208.633 115.814C208.833 115.813 209.03 115.858 209.21 115.945C209.39 116.032 209.547 116.16 209.668 116.318L214.032 121.973C214.187 122.175 214.399 122.326 214.641 122.408L226.531 126.435C226.797 126.525 227.027 126.699 227.185 126.93C227.343 127.162 227.421 127.438 227.407 127.718L225.271 171.774C225.262 171.97 225.297 172.165 225.375 172.344L226.396 174.72C226.5 174.962 226.528 175.231 226.474 175.489C226.421 175.747 226.29 175.982 226.098 176.163C225.795 176.449 225.454 176.78 225.235 177.022C224.793 177.509 225.736 181.325 225.876 181.882C225.888 181.928 225.897 181.976 225.903 182.023L226.431 185.969C226.462 186.201 226.429 186.438 226.336 186.653C226.242 186.868 226.092 187.053 225.901 187.189C225.755 187.293 225.633 187.426 225.541 187.579C225.45 187.732 225.391 187.902 225.369 188.079C225.347 188.256 225.362 188.436 225.413 188.607C225.464 188.778 225.55 188.936 225.665 189.073L226.822 190.435C226.982 190.623 227.084 190.853 227.117 191.098L227.394 193.17C227.422 193.374 227.4 193.583 227.33 193.777C227.26 193.972 227.144 194.147 226.992 194.287C226.84 194.428 226.656 194.53 226.456 194.585C226.256 194.639 226.046 194.645 225.843 194.602C218.66 193.057 191.925 188.141 182.118 198.103C181.933 198.295 181.693 198.425 181.43 198.475C181.168 198.526 180.897 198.494 180.653 198.384C180.41 198.275 180.206 198.093 180.071 197.863C179.935 197.634 179.874 197.368 179.896 197.103C179.967 196.027 180.103 194.957 180.303 193.898L181.261 187.855C181.283 187.715 181.282 187.572 181.257 187.432L180.382 182.431C180.336 182.169 180.21 181.928 180.022 181.74L179.728 181.447C179.608 181.328 179.513 181.185 179.448 181.029C179.383 180.872 179.349 180.705 179.349 180.535C179.349 180.366 179.383 180.198 179.448 180.042C179.513 179.885 179.608 179.743 179.728 179.623L180.873 178.482C181.014 178.341 181.12 178.17 181.184 177.982C181.247 177.794 181.267 177.594 181.24 177.397L179.72 166.177C179.716 166.155 179.713 166.132 179.709 166.11L172.986 130.707C172.933 130.427 172.974 130.138 173.103 129.884C173.232 129.63 173.442 129.426 173.7 129.303Z" fill="#3F3D56"/>
<path d="M199.364 111.242C199.305 111.114 199.247 110.985 199.189 110.855C199.211 110.856 199.233 110.859 199.256 110.86L199.364 111.242Z" fill="#2F2E41"/>
<path d="M225.404 146.136L239.665 126.5L246.879 115.697L240.193 83.4648L230.564 90.8395L231.322 108.813L218.432 126.949L225.404 146.136Z" fill="#3F3D56"/>
<path d="M214.807 85.9453C214.602 84.8098 214.143 83.7349 213.465 82.8001C213.123 82.3952 212.7 82.0668 212.222 81.8362C211.744 81.6057 211.223 81.4782 210.693 81.4621C210.162 81.446 209.634 81.5417 209.144 81.7429C208.653 81.9442 208.21 82.2464 207.844 82.6298C208.059 82.0085 208.121 81.3452 208.026 80.695C207.025 81.1738 205.954 81.4914 204.853 81.636L207.286 79.1035L195.176 80.2128C193.926 80.3273 192.574 80.4894 191.656 81.436C190.738 82.3827 190.688 84.4032 191.848 84.931C189.562 84.0728 186.937 85.3185 185.429 87.4057C183.921 89.4928 183.365 92.2459 183.263 94.9167C183.131 98.38 183.779 102.067 185.899 104.617C187.286 106.284 189.176 107.324 190.711 108.824C190.726 108.839 190.741 108.854 190.757 108.869C192.437 110.588 194.544 111.832 196.863 112.476C199.182 113.12 201.631 113.141 203.96 112.536C204.222 112.464 204.482 112.385 204.743 112.311C206.048 112.899 207.673 112.095 208.497 110.786C209.376 109.391 209.549 107.606 209.586 105.905C209.635 103.681 209.497 101.457 209.175 99.256C208.812 96.7773 208.485 93.6029 210.454 92.3579C211.987 91.3886 213.892 92.3451 215.435 93.2942C215.583 90.8272 215.372 88.3518 214.807 85.9453Z" fill="#2F2E41"/>
<path d="M185.573 149.219L176.438 148.562L160.583 129.21L148.815 112.392L151.525 105.555L167.757 78.0605L176.264 84.855L168.142 111.451L184.242 127.503L185.573 149.219Z" fill="#3F3D56"/>
<path d="M264.421 29.8337C272.647 29.8337 279.315 23.1854 279.315 14.9842C279.315 6.7831 272.647 0.134766 264.421 0.134766C256.195 0.134766 249.526 6.7831 249.526 14.9842C249.526 23.1854 256.195 29.8337 264.421 29.8337Z" fill="#C776D3"/>
<path d="M262.389 22.7115C262.132 22.7115 261.878 22.6518 261.648 22.5371C261.418 22.4224 261.218 22.2559 261.063 22.0507L257 16.649C256.869 16.4755 256.774 16.278 256.72 16.0678C256.665 15.8575 256.653 15.6387 256.684 15.4238C256.715 15.2089 256.788 15.0021 256.898 14.8153C257.009 14.6285 257.156 14.4653 257.33 14.335C257.504 14.2048 257.703 14.11 257.914 14.0562C258.125 14.0024 258.344 13.9906 258.56 14.0215C258.775 14.0523 258.982 14.1252 259.17 14.2359C259.357 14.3467 259.52 14.4932 259.651 14.667L262.309 18.2006L269.137 7.98988C269.258 7.80899 269.413 7.65356 269.594 7.53249C269.774 7.41142 269.977 7.32708 270.191 7.28431C270.405 7.24154 270.625 7.24117 270.838 7.28322C271.052 7.32527 271.255 7.40892 271.436 7.52938C271.618 7.64984 271.773 7.80474 271.894 7.98523C272.016 8.16572 272.1 8.36825 272.142 8.58123C272.185 8.79422 272.185 9.01347 272.142 9.22645C272.1 9.43943 272.016 9.64195 271.894 9.82243L263.767 21.9759C263.62 22.1957 263.423 22.3772 263.191 22.5051C262.959 22.633 262.7 22.7036 262.435 22.711C262.419 22.7113 262.404 22.7115 262.389 22.7115Z" fill="white"/>
</svg>
