<svg width="723" height="444" viewBox="0 0 723 444" fill="none" xmlns="http://www.w3.org/2000/svg">
<circle cx="359.094" cy="221.875" r="221.875" fill="#FFFEF7"/>
<mask id="mask0_744_1961" style="mask-type:alpha" maskUnits="userSpaceOnUse" x="137" y="0" width="444" height="444">
<circle cx="359.094" cy="221.875" r="221.875" fill="#FFFEF7"/>
</mask>
<g mask="url(#mask0_744_1961)">
</g>
<path d="M240.717 24.6797H93.2736C81.1799 24.6797 71.3761 34.269 71.3761 46.0981V50.3818C71.3761 62.2108 81.1799 71.8002 93.2736 71.8002H240.717C252.811 71.8002 262.614 62.2108 262.614 50.3818V46.0981C262.614 34.269 252.811 24.6797 240.717 24.6797Z" fill="#90D29F"/>
<path d="M103.516 53.0411H107.79V54.3091H101.922V42.3662H103.516V53.0411ZM113.845 54.4633C112.946 54.4633 112.128 54.2634 111.393 53.8636C110.669 53.4637 110.096 52.8983 109.676 52.1672C109.267 51.4247 109.063 50.568 109.063 49.597C109.063 48.6375 109.273 47.7921 109.693 47.0611C110.126 46.3186 110.709 45.7531 111.445 45.3647C112.181 44.9649 113.004 44.765 113.915 44.765C114.826 44.765 115.65 44.9649 116.385 45.3647C117.121 45.7531 117.699 46.3129 118.12 47.0439C118.552 47.775 118.768 48.626 118.768 49.597C118.768 50.568 118.546 51.4247 118.102 52.1672C117.67 52.8983 117.08 53.4637 116.333 53.8636C115.585 54.2634 114.756 54.4633 113.845 54.4633ZM113.845 53.0925C114.417 53.0925 114.955 52.9611 115.457 52.6984C115.959 52.4357 116.362 52.0416 116.666 51.5161C116.981 50.9906 117.139 50.3509 117.139 49.597C117.139 48.8431 116.987 48.2034 116.683 47.6779C116.379 47.1525 115.982 46.7641 115.492 46.5128C115.001 46.25 114.47 46.1187 113.898 46.1187C113.314 46.1187 112.777 46.25 112.286 46.5128C111.807 46.7641 111.422 47.1525 111.13 47.6779C110.838 48.2034 110.692 48.8431 110.692 49.597C110.692 50.3624 110.832 51.0078 111.112 51.5332C111.404 52.0587 111.79 52.4528 112.269 52.7155C112.747 52.9668 113.273 53.0925 113.845 53.0925ZM122.633 41.6294V54.3091H121.039V41.6294H122.633ZM129.712 54.4633C128.813 54.4633 127.995 54.2634 127.259 53.8636C126.535 53.4637 125.963 52.8983 125.542 52.1672C125.134 51.4247 124.929 50.568 124.929 49.597C124.929 48.6375 125.14 47.7921 125.56 47.0611C125.992 46.3186 126.576 45.7531 127.312 45.3647C128.048 44.9649 128.871 44.765 129.782 44.765C130.693 44.765 131.516 44.9649 132.252 45.3647C132.988 45.7531 133.566 46.3129 133.986 47.0439C134.418 47.775 134.634 48.626 134.634 49.597C134.634 50.568 134.412 51.4247 133.969 52.1672C133.537 52.8983 132.947 53.4637 132.199 53.8636C131.452 54.2634 130.623 54.4633 129.712 54.4633ZM129.712 53.0925C130.284 53.0925 130.821 52.9611 131.323 52.6984C131.826 52.4357 132.229 52.0416 132.532 51.5161C132.848 50.9906 133.005 50.3509 133.005 49.597C133.005 48.8431 132.853 48.2034 132.55 47.6779C132.246 47.1525 131.849 46.7641 131.358 46.5128C130.868 46.25 130.337 46.1187 129.764 46.1187C129.18 46.1187 128.643 46.25 128.153 46.5128C127.674 46.7641 127.288 47.1525 126.996 47.6779C126.705 48.2034 126.559 48.8431 126.559 49.597C126.559 50.3624 126.699 51.0078 126.979 51.5332C127.271 52.0587 127.656 52.4528 128.135 52.7155C128.614 52.9668 129.14 53.0925 129.712 53.0925ZM140.304 54.4633C139.568 54.4633 138.908 54.3433 138.324 54.1034C137.74 53.8521 137.279 53.5094 136.941 53.0754C136.602 52.6299 136.415 52.1215 136.38 51.5504H138.027C138.073 52.0187 138.295 52.4014 138.692 52.6984C139.101 52.9954 139.632 53.1439 140.286 53.1439C140.894 53.1439 141.373 53.0125 141.723 52.7498C142.073 52.4871 142.248 52.1558 142.248 51.756C142.248 51.3448 142.062 51.042 141.688 50.8478C141.314 50.6422 140.736 50.4423 139.954 50.2481C139.241 50.0654 138.657 49.8826 138.202 49.6998C137.758 49.5056 137.373 49.2258 137.046 48.8602C136.73 48.4832 136.573 47.9921 136.573 47.3866C136.573 46.9069 136.719 46.4671 137.011 46.0673C137.303 45.6674 137.717 45.3533 138.254 45.1248C138.792 44.885 139.405 44.765 140.094 44.765C141.157 44.765 142.015 45.0277 142.669 45.5532C143.323 46.0787 143.673 46.7983 143.72 47.7122H142.126C142.091 47.221 141.886 46.8269 141.513 46.5299C141.151 46.2329 140.66 46.0844 140.041 46.0844C139.469 46.0844 139.013 46.2043 138.675 46.4442C138.336 46.6841 138.167 46.9982 138.167 47.3866C138.167 47.6951 138.266 47.9521 138.465 48.1577C138.675 48.3519 138.932 48.5118 139.235 48.6375C139.551 48.7517 139.983 48.8831 140.532 49.0316C141.221 49.2143 141.781 49.3971 142.213 49.5799C142.646 49.7512 143.013 50.014 143.317 50.3681C143.632 50.7222 143.796 51.1848 143.808 51.756C143.808 52.27 143.662 52.7327 143.37 53.1439C143.078 53.5551 142.663 53.8807 142.126 54.1206C141.6 54.349 140.993 54.4633 140.304 54.4633ZM157.193 48.1577C157.637 48.2262 158.039 48.4033 158.402 48.6889C158.775 48.9744 159.067 49.3286 159.277 49.7512C159.499 50.1739 159.61 50.6251 159.61 51.1049C159.61 51.7103 159.453 52.2586 159.137 52.7498C158.822 53.2296 158.361 53.6122 157.753 53.8978C157.158 54.172 156.451 54.3091 155.634 54.3091H151.079V42.3662H155.459C156.288 42.3662 156.994 42.5032 157.578 42.7774C158.162 43.0401 158.6 43.3999 158.892 43.8569C159.184 44.3138 159.33 44.8278 159.33 45.399C159.33 46.1072 159.131 46.6955 158.734 47.1639C158.349 47.6208 157.835 47.9521 157.193 48.1577ZM152.673 47.5237H155.353C156.101 47.5237 156.679 47.3524 157.088 47.0097C157.496 46.667 157.701 46.1929 157.701 45.5875C157.701 44.9821 157.496 44.508 157.088 44.1653C156.679 43.8226 156.089 43.6513 155.318 43.6513H152.673V47.5237ZM155.494 53.024C156.288 53.024 156.907 52.8412 157.35 52.4756C157.794 52.1101 158.016 51.6018 158.016 50.9506C158.016 50.2881 157.783 49.7684 157.315 49.3914C156.848 49.003 156.223 48.8088 155.441 48.8088H152.673V53.024H155.494ZM170.756 49.2543C170.756 49.5513 170.739 49.8654 170.704 50.1967H163.031C163.089 51.122 163.411 51.8474 163.995 52.3728C164.59 52.8869 165.308 53.1439 166.149 53.1439C166.838 53.1439 167.411 52.9897 167.866 52.6813C168.333 52.3614 168.66 51.9388 168.847 51.4133H170.564C170.307 52.3157 169.793 53.0525 169.022 53.6237C168.251 54.1834 167.294 54.4633 166.149 54.4633C165.238 54.4633 164.421 54.2634 163.697 53.8636C162.984 53.4637 162.424 52.8983 162.015 52.1672C161.606 51.4247 161.402 50.568 161.402 49.597C161.402 48.626 161.6 47.775 161.997 47.0439C162.395 46.3129 162.949 45.7531 163.662 45.3647C164.386 44.9649 165.215 44.765 166.149 44.765C167.06 44.765 167.866 44.9592 168.567 45.3476C169.267 45.736 169.805 46.2729 170.178 46.9583C170.564 47.6322 170.756 48.3976 170.756 49.2543ZM169.11 48.9288C169.11 48.3347 168.975 47.8264 168.707 47.4038C168.438 46.9697 168.07 46.6441 167.603 46.4271C167.148 46.1986 166.64 46.0844 166.079 46.0844C165.273 46.0844 164.584 46.3357 164.012 46.8383C163.451 47.3409 163.13 48.0377 163.049 48.9288H169.11ZM172.44 49.5799C172.44 48.6203 172.639 47.7807 173.036 47.0611C173.433 46.33 173.976 45.7645 174.665 45.3647C175.366 44.9649 176.143 44.765 176.995 44.765C177.836 44.765 178.566 44.9421 179.185 45.2962C179.804 45.6503 180.265 46.0958 180.569 46.6327V44.9192H182.181V54.3091H180.569V52.5613C180.253 53.1096 179.78 53.5666 179.15 53.9321C178.531 54.2862 177.807 54.4633 176.978 54.4633C176.125 54.4633 175.354 54.2577 174.665 53.8464C173.976 53.4352 173.433 52.8583 173.036 52.1158C172.639 51.3733 172.44 50.528 172.44 49.5799ZM180.569 49.597C180.569 48.8888 180.423 48.2719 180.131 47.7465C179.839 47.221 179.442 46.8212 178.94 46.547C178.449 46.2614 177.906 46.1187 177.31 46.1187C176.715 46.1187 176.172 46.2557 175.681 46.5299C175.191 46.804 174.799 47.2039 174.508 47.7293C174.216 48.2548 174.07 48.8716 174.07 49.5799C174.07 50.2995 174.216 50.9278 174.508 51.4647C174.799 51.9902 175.191 52.3957 175.681 52.6813C176.172 52.9554 176.715 53.0925 177.31 53.0925C177.906 53.0925 178.449 52.9554 178.94 52.6813C179.442 52.3957 179.839 51.9902 180.131 51.4647C180.423 50.9278 180.569 50.3052 180.569 49.597ZM188.447 54.4633C187.714 54.4633 187.053 54.3433 186.469 54.1034C185.885 53.8521 185.422 53.5094 185.086 53.0754C184.747 52.6299 184.561 52.1215 184.524 51.5504H186.17C186.218 52.0187 186.44 52.4014 186.838 52.6984C187.247 52.9954 187.776 53.1439 188.429 53.1439C189.039 53.1439 189.517 53.0125 189.867 52.7498C190.218 52.4871 190.393 52.1558 190.393 51.756C190.393 51.3448 190.207 51.042 189.831 50.8478C189.458 50.6422 188.882 50.4423 188.097 50.2481C187.385 50.0654 186.802 49.8826 186.345 49.6998C185.904 49.5056 185.517 49.2258 185.188 48.8602C184.875 48.4832 184.718 47.9921 184.718 47.3866C184.718 46.9069 184.864 46.4671 185.156 46.0673C185.448 45.6674 185.86 45.3533 186.4 45.1248C186.937 44.885 187.55 44.765 188.239 44.765C189.301 44.765 190.159 45.0277 190.812 45.5532C191.466 46.0787 191.816 46.7983 191.864 47.7122H190.269C190.236 47.221 190.031 46.8269 189.656 46.5299C189.294 46.2329 188.805 46.0844 188.185 46.0844C187.612 46.0844 187.159 46.2043 186.82 46.4442C186.48 46.6841 186.312 46.9982 186.312 47.3866C186.312 47.6951 186.411 47.9521 186.608 48.1577C186.82 48.3519 187.075 48.5118 187.378 48.6375C187.696 48.7517 188.126 48.8831 188.677 49.0316C189.364 49.2143 189.926 49.3971 190.356 49.5799C190.791 49.7512 191.159 50.014 191.462 50.3681C191.776 50.7222 191.94 51.1848 191.951 51.756C191.951 52.27 191.805 52.7327 191.513 53.1439C191.221 53.5551 190.809 53.8807 190.269 54.1206C189.743 54.349 189.137 54.4633 188.447 54.4633ZM195.199 43.3942C194.896 43.3942 194.641 43.2914 194.429 43.0858C194.221 42.8802 194.115 42.6289 194.115 42.3319C194.115 42.0349 194.221 41.7836 194.429 41.578C194.641 41.3723 194.896 41.2695 195.199 41.2695C195.491 41.2695 195.739 41.3723 195.936 41.578C196.148 41.7836 196.25 42.0349 196.25 42.3319C196.25 42.6289 196.148 42.8802 195.936 43.0858C195.739 43.2914 195.491 43.3942 195.199 43.3942ZM195.973 44.9192V54.3091H194.378V44.9192H195.973ZM202.261 54.4633C201.528 54.4633 200.867 54.3433 200.283 54.1034C199.699 53.8521 199.236 53.5094 198.9 53.0754C198.561 52.6299 198.374 52.1215 198.338 51.5504H199.984C200.031 52.0187 200.254 52.4014 200.652 52.6984C201.06 52.9954 201.59 53.1439 202.243 53.1439C202.852 53.1439 203.331 53.0125 203.681 52.7498C204.031 52.4871 204.206 52.1558 204.206 51.756C204.206 51.3448 204.02 51.042 203.644 50.8478C203.272 50.6422 202.695 50.4423 201.911 50.2481C201.199 50.0654 200.615 49.8826 200.159 49.6998C199.717 49.5056 199.331 49.2258 199.002 48.8602C198.688 48.4832 198.531 47.9921 198.531 47.3866C198.531 46.9069 198.677 46.4671 198.969 46.0673C199.261 45.6674 199.674 45.3533 200.214 45.1248C200.75 44.885 201.363 44.765 202.053 44.765C203.115 44.765 203.973 45.0277 204.626 45.5532C205.279 46.0787 205.63 46.7983 205.677 47.7122H204.082C204.049 47.221 203.845 46.8269 203.469 46.5299C203.108 46.2329 202.619 46.0844 201.998 46.0844C201.425 46.0844 200.973 46.2043 200.633 46.4442C200.294 46.6841 200.126 46.9982 200.126 47.3866C200.126 47.6951 200.225 47.9521 200.422 48.1577C200.633 48.3519 200.889 48.5118 201.192 48.6375C201.509 48.7517 201.94 48.8831 202.491 49.0316C203.177 49.2143 203.739 49.3971 204.17 49.5799C204.604 49.7512 204.973 50.014 205.276 50.3681C205.59 50.7222 205.754 51.1848 205.765 51.756C205.765 52.27 205.619 52.7327 205.327 53.1439C205.035 53.5551 204.622 53.8807 204.082 54.1206C203.557 54.349 202.951 54.4633 202.261 54.4633ZM220.98 44.9192L217.984 54.3091H216.338L214.024 46.8555L211.714 54.3091H210.064L207.053 44.9192H208.681L210.889 52.8012L213.272 44.9192H214.9L217.232 52.8183L219.403 44.9192H220.98ZM222.14 49.5799C222.14 48.6203 222.338 47.7807 222.735 47.0611C223.133 46.33 223.677 45.7645 224.367 45.3647C225.067 44.9649 225.841 44.765 226.695 44.765C227.535 44.765 228.264 44.9421 228.885 45.2962C229.505 45.6503 229.965 46.0958 230.268 46.6327V44.9192H231.881V54.3091H230.268V52.5613C229.954 53.1096 229.48 53.5666 228.848 53.9321C228.232 54.2862 227.505 54.4633 226.677 54.4633C225.827 54.4633 225.053 54.2577 224.367 53.8464C223.677 53.4352 223.133 52.8583 222.735 52.1158C222.338 51.3733 222.14 50.528 222.14 49.5799ZM230.268 49.597C230.268 48.8888 230.122 48.2719 229.83 47.7465C229.538 47.221 229.14 46.8212 228.64 46.547C228.148 46.2614 227.608 46.1187 227.009 46.1187C226.414 46.1187 225.87 46.2557 225.381 46.5299C224.892 46.804 224.498 47.2039 224.206 47.7293C223.914 48.2548 223.768 48.8716 223.768 49.5799C223.768 50.2995 223.914 50.9278 224.206 51.4647C224.498 51.9902 224.892 52.3957 225.381 52.6813C225.87 52.9554 226.414 53.0925 227.009 53.0925C227.608 53.0925 228.148 52.9554 228.64 52.6813C229.14 52.3957 229.538 51.9902 229.83 51.4647C230.122 50.9278 230.268 50.3052 230.268 49.597Z" fill="#313131"/>
<path d="M653.515 161H457.898C445.804 161 436 170.589 436 182.418V186.702C436 198.531 445.804 208.12 457.898 208.12H653.515C665.609 208.12 675.413 198.531 675.413 186.702V182.418C675.413 170.589 665.609 161 653.515 161Z" fill="#90D29F"/>
<path d="M473.167 190.629L468.14 185.181V190.629H466.546V178.686H468.14V184.221L473.185 178.686H475.2L469.664 184.666L475.252 190.629H473.167ZM485.721 181.24V190.629H484.127V189.241C483.824 189.721 483.397 190.098 482.848 190.372C482.311 190.635 481.716 190.766 481.062 190.766C480.314 190.766 479.643 190.618 479.047 190.321C478.451 190.013 477.978 189.556 477.628 188.95C477.289 188.345 477.12 187.608 477.12 186.74V181.24H478.697V186.534C478.697 187.459 478.936 188.173 479.415 188.676C479.894 189.167 480.548 189.413 481.377 189.413C482.229 189.413 482.901 189.156 483.391 188.642C483.882 188.128 484.127 187.38 484.127 186.397V181.24H485.721ZM490.182 177.95V190.629H488.588V177.95H490.182ZM493.898 179.715C493.594 179.715 493.337 179.612 493.127 179.406C492.917 179.201 492.812 178.949 492.812 178.652C492.812 178.355 492.917 178.104 493.127 177.898C493.337 177.693 493.594 177.59 493.898 177.59C494.19 177.59 494.435 177.693 494.634 177.898C494.844 178.104 494.949 178.355 494.949 178.652C494.949 178.949 494.844 179.201 494.634 179.406C494.435 179.612 494.19 179.715 493.898 179.715ZM494.669 181.24V190.629H493.075V181.24H494.669ZM496.965 185.9C496.965 184.941 497.163 184.101 497.561 183.381C497.958 182.65 498.501 182.085 499.19 181.685C499.89 181.285 500.667 181.085 501.52 181.085C502.361 181.085 503.09 181.262 503.709 181.617C504.328 181.971 504.791 182.416 505.094 182.953V181.24H506.704V190.629H505.094V188.882C504.777 189.43 504.306 189.887 503.674 190.252C503.055 190.607 502.331 190.784 501.502 190.784C500.65 190.784 499.879 190.578 499.19 190.167C498.501 189.756 497.958 189.179 497.561 188.436C497.163 187.694 496.965 186.848 496.965 185.9ZM505.094 185.917C505.094 185.209 504.948 184.592 504.656 184.067C504.364 183.541 503.966 183.142 503.464 182.867C502.974 182.582 502.431 182.439 501.835 182.439C501.239 182.439 500.696 182.576 500.206 182.85C499.715 183.124 499.324 183.524 499.032 184.05C498.74 184.575 498.594 185.192 498.594 185.9C498.594 186.62 498.74 187.248 499.032 187.785C499.324 188.31 499.715 188.716 500.206 189.002C500.696 189.276 501.239 189.413 501.835 189.413C502.431 189.413 502.974 189.276 503.464 189.002C503.966 188.716 504.364 188.31 504.656 187.785C504.948 187.248 505.094 186.626 505.094 185.917ZM514.338 181.068C515.065 181.068 515.718 181.222 516.302 181.531C516.886 181.828 517.342 182.279 517.667 182.884C518.006 183.49 518.174 184.227 518.174 185.095V190.629H516.598V185.318C516.598 184.381 516.36 183.667 515.882 183.176C515.4 182.673 514.747 182.422 513.919 182.422C513.079 182.422 512.408 182.679 511.904 183.193C511.415 183.707 511.167 184.455 511.167 185.438V190.629H509.576V177.95H511.167V182.576C511.484 182.096 511.915 181.725 512.466 181.462C513.025 181.2 513.649 181.068 514.338 181.068ZM525.203 185.9C525.203 184.941 525.404 184.101 525.802 183.381C526.196 182.65 526.74 182.085 527.43 181.685C528.13 181.285 528.911 181.085 529.776 181.085C530.524 181.085 531.218 181.257 531.86 181.599C532.502 181.931 532.995 182.37 533.335 182.919V177.95H534.944V190.629H533.335V188.865C533.017 189.424 532.55 189.887 531.933 190.252C531.313 190.607 530.59 190.784 529.758 190.784C528.908 190.784 528.13 190.578 527.43 190.167C526.74 189.756 526.196 189.179 525.802 188.436C525.404 187.694 525.203 186.848 525.203 185.9ZM533.335 185.917C533.335 185.209 533.189 184.592 532.897 184.067C532.605 183.541 532.207 183.142 531.703 182.867C531.214 182.582 530.67 182.439 530.075 182.439C529.481 182.439 528.937 182.576 528.444 182.85C527.955 183.124 527.565 183.524 527.273 184.05C526.981 184.575 526.835 185.192 526.835 185.9C526.835 186.62 526.981 187.248 527.273 187.785C527.565 188.31 527.955 188.716 528.444 189.002C528.937 189.276 529.481 189.413 530.075 189.413C530.67 189.413 531.214 189.276 531.703 189.002C532.207 188.716 532.605 188.31 532.897 187.785C533.189 187.248 533.335 186.626 533.335 185.917ZM538.637 179.715C538.334 179.715 538.075 179.612 537.867 179.406C537.656 179.201 537.55 178.949 537.55 178.652C537.55 178.355 537.656 178.104 537.867 177.898C538.075 177.693 538.334 177.59 538.637 177.59C538.929 177.59 539.174 177.693 539.375 177.898C539.583 178.104 539.688 178.355 539.688 178.652C539.688 178.949 539.583 179.201 539.375 179.406C539.174 179.612 538.929 179.715 538.637 179.715ZM539.407 181.24V190.629H537.813V181.24H539.407ZM548.739 189.361H553.013V190.629H547.145V178.686H548.739V189.361ZM563.396 181.24V190.629H561.801V189.241C561.498 189.721 561.071 190.098 560.524 190.372C559.987 190.635 559.389 190.766 558.736 190.766C557.988 190.766 557.316 190.618 556.721 190.321C556.126 190.013 555.652 189.556 555.301 188.95C554.966 188.345 554.794 187.608 554.794 186.74V181.24H556.371V186.534C556.371 187.459 556.612 188.173 557.09 188.676C557.568 189.167 558.221 189.413 559.053 189.413C559.904 189.413 560.575 189.156 561.068 188.642C561.557 188.128 561.801 187.38 561.801 186.397V181.24H563.396ZM565.666 185.9C565.666 184.941 565.867 184.101 566.261 183.381C566.659 182.65 567.203 182.085 567.893 181.685C568.593 181.285 569.371 181.085 570.221 181.085C571.064 181.085 571.794 181.262 572.411 181.617C573.031 181.971 573.491 182.416 573.794 182.953V181.24H575.407V190.629H573.794V188.882C573.48 189.43 573.006 189.887 572.378 190.252C571.757 190.607 571.035 190.784 570.203 190.784C569.352 190.784 568.582 190.578 567.893 190.167C567.203 189.756 566.659 189.179 566.261 188.436C565.867 187.694 565.666 186.848 565.666 185.9ZM573.794 185.917C573.794 185.209 573.648 184.592 573.356 184.067C573.064 183.541 572.67 183.142 572.166 182.867C571.677 182.582 571.133 182.439 570.538 182.439C569.94 182.439 569.4 182.576 568.907 182.85C568.418 183.124 568.028 183.524 567.736 184.05C567.444 184.575 567.298 185.192 567.298 185.9C567.298 186.62 567.444 187.248 567.736 187.785C568.028 188.31 568.418 188.716 568.907 189.002C569.4 189.276 569.94 189.413 570.538 189.413C571.133 189.413 571.677 189.276 572.166 189.002C572.67 188.716 573.064 188.31 573.356 187.785C573.648 187.248 573.794 186.626 573.794 185.917ZM579.87 182.765C580.151 182.228 580.549 181.811 581.06 181.514C581.586 181.217 582.224 181.068 582.973 181.068V182.679H582.549C580.765 182.679 579.87 183.627 579.87 185.523V190.629H578.276V181.24H579.87V182.765ZM599.432 190.629H597.837L591.425 181.12V190.629H589.834V178.669H591.425L597.837 188.162V178.669H599.432V190.629ZM611.085 185.575C611.085 185.872 611.067 186.186 611.031 186.517H603.359C603.418 187.442 603.739 188.168 604.323 188.693C604.918 189.207 605.637 189.464 606.476 189.464C607.166 189.464 607.739 189.31 608.195 189.002C608.662 188.682 608.987 188.259 609.173 187.734H610.892C610.633 188.636 610.122 189.373 609.348 189.944C608.578 190.504 607.622 190.784 606.476 190.784C605.567 190.784 604.75 190.584 604.023 190.184C603.312 189.784 602.75 189.219 602.341 188.488C601.932 187.745 601.728 186.888 601.728 185.917C601.728 184.946 601.929 184.095 602.326 183.364C602.72 182.633 603.275 182.073 603.991 181.685C604.713 181.285 605.542 181.085 606.476 181.085C607.388 181.085 608.195 181.28 608.896 181.668C609.596 182.056 610.133 182.593 610.505 183.279C610.892 183.953 611.085 184.718 611.085 185.575ZM609.436 185.249C609.436 184.655 609.304 184.147 609.034 183.724C608.764 183.29 608.399 182.964 607.932 182.747C607.476 182.519 606.969 182.405 606.407 182.405C605.6 182.405 604.91 182.656 604.341 183.159C603.779 183.661 603.458 184.358 603.377 185.249H609.436ZM617.322 181.085C618.151 181.085 618.877 181.262 619.494 181.617C620.125 181.971 620.593 182.416 620.895 182.953V181.24H622.509V190.835C622.509 191.692 622.322 192.451 621.947 193.114C621.574 193.788 621.038 194.313 620.337 194.69C619.647 195.067 618.841 195.256 617.917 195.256C616.658 195.256 615.607 194.964 614.764 194.382C613.925 193.799 613.428 193.005 613.275 192H614.852C615.027 192.571 615.388 193.028 615.939 193.371C616.487 193.725 617.147 193.902 617.917 193.902C618.793 193.902 619.505 193.634 620.056 193.097C620.614 192.56 620.895 191.806 620.895 190.835V188.865C620.582 189.413 620.114 189.87 619.494 190.235C618.877 190.601 618.151 190.784 617.322 190.784C616.468 190.784 615.695 190.578 614.994 190.167C614.304 189.756 613.76 189.179 613.363 188.436C612.965 187.694 612.768 186.848 612.768 185.9C612.768 184.941 612.965 184.101 613.363 183.381C613.76 182.65 614.304 182.085 614.994 181.685C615.695 181.285 616.468 181.085 617.322 181.085ZM620.895 185.917C620.895 185.209 620.749 184.592 620.458 184.067C620.166 183.541 619.768 183.142 619.268 182.867C618.775 182.582 618.235 182.439 617.636 182.439C617.041 182.439 616.498 182.576 616.009 182.85C615.52 183.124 615.125 183.524 614.833 184.05C614.542 184.575 614.396 185.192 614.396 185.9C614.396 186.62 614.542 187.248 614.833 187.785C615.125 188.31 615.52 188.716 616.009 189.002C616.498 189.276 617.041 189.413 617.636 189.413C618.235 189.413 618.775 189.276 619.268 189.002C619.768 188.716 620.166 188.31 620.458 187.785C620.749 187.248 620.895 186.626 620.895 185.917ZM634.136 185.575C634.136 185.872 634.118 186.186 634.081 186.517H626.41C626.468 187.442 626.79 188.168 627.373 188.693C627.968 189.207 628.687 189.464 629.527 189.464C630.216 189.464 630.789 189.31 631.246 189.002C631.713 188.682 632.038 188.259 632.227 187.734H633.943C633.687 188.636 633.173 189.373 632.403 189.944C631.629 190.504 630.673 190.784 629.527 190.784C628.618 190.784 627.8 190.584 627.074 190.184C626.363 189.784 625.804 189.219 625.395 188.488C624.987 187.745 624.782 186.888 624.782 185.917C624.782 184.946 624.979 184.095 625.377 183.364C625.775 182.633 626.33 182.073 627.041 181.685C627.764 181.285 628.592 181.085 629.527 181.085C630.439 181.085 631.246 181.28 631.946 181.668C632.647 182.056 633.184 182.593 633.556 183.279C633.943 183.953 634.136 184.718 634.136 185.575ZM632.49 185.249C632.49 184.655 632.355 184.147 632.085 183.724C631.819 183.29 631.45 182.964 630.983 182.747C630.527 182.519 630.019 182.405 629.457 182.405C628.651 182.405 627.965 182.656 627.392 183.159C626.83 183.661 626.509 184.358 626.428 185.249H632.49ZM638.008 182.765C638.289 182.228 638.687 181.811 639.202 181.514C639.727 181.217 640.362 181.068 641.111 181.068V182.679H640.691C638.902 182.679 638.008 183.627 638.008 185.523V190.629H636.413V181.24H638.008V182.765ZM643.95 179.715C643.643 179.715 643.388 179.612 643.176 179.406C642.968 179.201 642.862 178.949 642.862 178.652C642.862 178.355 642.968 178.104 643.176 177.898C643.388 177.693 643.643 177.59 643.95 177.59C644.242 177.59 644.486 177.693 644.683 177.898C644.895 178.104 645.001 178.355 645.001 178.652C645.001 178.949 644.895 179.201 644.683 179.406C644.486 179.612 644.242 179.715 643.95 179.715ZM644.72 181.24V190.629H643.125V181.24H644.72Z" fill="#313131"/>
<g clip-path="url(#clip0_744_1961)">
<path d="M109.472 386.252C93.5365 398.148 89.0201 419.079 89.0201 419.079C89.0201 419.079 110.341 420.722 126.276 408.826C142.212 396.93 146.729 375.999 146.729 375.999C146.729 375.999 125.408 374.355 109.472 386.252Z" fill="#AFAFAF"/>
<path d="M116.11 391.838C108.452 410.206 89.2701 419.671 89.2701 419.671C89.2701 419.671 82.5061 399.356 90.165 380.989C97.8239 362.621 117.005 353.156 117.005 353.156C117.005 353.156 123.769 373.471 116.11 391.838Z" fill="#AFAFAF"/>
<path d="M574.596 338.74C572.903 327.319 572.456 315.746 573.262 304.228L574.596 285.164C567.245 299.812 568.906 319.091 574.596 338.74V338.74Z" fill="#CACACA"/>
<path d="M580.328 341.93C579.513 335.114 579.298 328.24 579.686 321.386L580.328 310.039C576.791 318.758 577.591 330.233 580.328 341.93Z" fill="#CACACA"/>
<path d="M605.807 355.962V362.34C605.805 362.847 605.603 363.332 605.245 363.691C604.887 364.049 604.403 364.251 603.897 364.254H600.712C600.628 364.254 600.546 364.27 600.468 364.302C600.391 364.334 600.32 364.381 600.261 364.44C600.202 364.499 600.155 364.57 600.123 364.647C600.091 364.725 600.075 364.808 600.075 364.892V417.192C600.073 417.699 599.871 418.184 599.513 418.542C599.155 418.901 598.671 419.103 598.165 419.106H559.313C558.807 419.105 558.321 418.904 557.963 418.545C557.604 418.186 557.403 417.7 557.403 417.192V364.892C557.402 364.723 557.335 364.561 557.215 364.441C557.096 364.322 556.934 364.254 556.766 364.254H552.944C552.438 364.253 551.952 364.052 551.594 363.693C551.235 363.334 551.034 362.848 551.034 362.34V355.962C551.033 355.711 551.082 355.462 551.178 355.23C551.274 354.997 551.415 354.786 551.592 354.609C551.77 354.431 551.981 354.29 552.213 354.194C552.445 354.098 552.693 354.048 552.944 354.049H603.897C604.403 354.05 604.888 354.252 605.246 354.611C605.604 354.969 605.806 355.455 605.807 355.962Z" fill="#AFAFAF"/>
<path d="M600.133 365.594H557.46V367.507H600.133V365.594Z" fill="#E6E6E6"/>
<path d="M600.075 393.749C585.796 399.667 571.361 399.732 556.766 393.749V380.269C570.817 375.543 586.024 375.543 600.075 380.269V393.749Z" fill="#E6E6E6"/>
<path d="M360.89 187.638C392.766 187.638 418.607 161.76 418.607 129.839C418.607 97.9168 392.766 72.0391 360.89 72.0391C329.013 72.0391 303.172 97.9168 303.172 129.839C303.172 161.76 329.013 187.638 360.89 187.638Z" fill="#FEB8B8"/>
<path d="M414.798 79.9738C406.169 65.9413 392.662 55.6013 376.876 50.9442L369.79 56.1224V49.3987C365.999 48.8176 362.162 48.5938 358.329 48.7301L352.216 54.2693V49.1903C343.165 50.3167 334.445 53.3089 326.606 57.9782C318.767 62.6476 311.979 68.8928 306.671 76.32C293.395 95.4859 291.154 122.15 304.211 141.469C307.795 130.438 312.146 120.087 315.731 109.057C318.549 109.441 321.404 109.455 324.225 109.098L328.585 98.9079L329.804 108.667C343.321 107.488 363.37 104.898 376.184 102.526L374.938 95.0391L382.393 101.26C386.318 100.355 388.65 99.5342 388.457 98.9068C397.987 114.293 409.651 124.12 419.18 139.506C422.8 117.811 426.966 99.7715 414.798 79.9738Z" fill="#2F2E41"/>
<path d="M485.023 278.472C483.039 266.514 480.992 254.327 475.442 243.555C471.795 236.499 466.005 229.776 458.201 228.381C456.663 228.243 455.152 227.893 453.711 227.34C451.424 226.237 420.693 208.669 415.809 205.609C411.615 202.982 404.995 198.118 401.657 198.118C398.298 198.045 385.421 201.046 335.161 197.111C335.161 197.111 321.353 202.561 310.67 209.17C310.508 209.063 258.504 237.029 256.55 236.955C252.85 236.799 249.411 239.171 247.29 242.159C245.169 245.146 244.174 248.845 243.133 252.42C254.491 277.752 264.884 303.115 276.244 328.446C276.775 329.401 277.058 330.474 277.065 331.566C276.837 332.7 276.353 333.767 275.652 334.686C270.081 343.648 270.258 354.919 270.867 365.451C271.476 375.983 272.229 387.108 267.529 396.549C266.25 399.141 264.588 401.513 263.372 404.105C260.524 409.975 259.495 428.75 261.158 435.056L469.532 441.034C465.052 428.702 485.023 278.472 485.023 278.472Z" fill="#C776D3"/>
<path d="M225.121 329.57C224.705 332.582 224.664 335.634 224.997 338.656L227.983 381.608C228.263 385.656 228.539 389.694 228.919 393.732C229.635 401.569 230.706 409.344 232.034 417.107C232.064 418.209 232.53 419.255 233.329 420.014C234.127 420.772 235.194 421.183 236.295 421.155C249.442 423.941 263.025 423.83 276.442 423.071C296.915 421.926 349.295 419.761 352.495 415.598C355.696 411.435 353.831 404.702 349.658 401.335C345.485 397.969 276.363 389.762 276.363 389.762C277.038 384.402 279.075 379.355 281.008 374.266C284.48 365.24 287.722 355.918 287.785 346.249C287.847 336.58 284.209 326.415 276.3 320.875C269.794 316.328 261.418 315.484 253.49 315.672C247.721 315.838 237.755 314.454 232.486 316.712C228.317 318.551 225.9 325.482 225.121 329.57Z" fill="#FBBEBE"/>
<path d="M242.532 253.192C241.52 254.253 240.735 255.511 240.225 256.887C231.825 275.846 226.863 296.152 225.572 316.854C225.595 317.863 225.362 318.862 224.896 319.758C224.437 320.353 223.926 320.907 223.369 321.412C222.883 321.989 222.515 322.656 222.287 323.375C222.058 324.094 221.974 324.851 222.037 325.603C222.101 326.354 222.312 327.086 222.658 327.756C223.004 328.426 223.479 329.022 224.055 329.508C224.149 329.588 224.246 329.665 224.346 329.738C226.06 326.507 230.165 325.45 233.814 325.17C251.283 323.786 268.348 331.924 285.87 331.31C284.633 327.033 282.855 322.922 281.847 318.593C277.389 299.37 288.509 278.442 281.691 259.927C280.329 256.222 278.054 252.579 274.469 250.955C272.984 250.356 271.431 249.944 269.844 249.73C265.417 248.928 256.603 245.504 252.323 246.878C250.742 247.389 250.119 248.876 248.81 249.775C246.82 251.048 244.181 251.516 242.532 253.192Z" fill="#C776D3"/>
<path d="M485.148 316.712C479.88 314.454 469.913 315.838 464.145 315.672C456.217 315.484 447.84 316.328 441.334 320.875C433.425 326.415 429.787 336.58 429.85 346.249C429.912 355.918 433.155 365.24 436.626 374.266C438.559 379.355 440.596 384.402 441.272 389.762C441.272 389.762 372.149 397.969 367.976 401.335C363.804 404.702 361.939 411.435 365.139 415.598C368.339 419.761 468.193 423.941 481.339 421.155C482.44 421.183 483.507 420.772 484.306 420.013C485.104 419.255 485.57 418.209 485.6 417.107C486.929 409.344 487.999 401.569 488.715 393.732C489.095 389.694 489.371 385.656 489.651 381.608L492.638 338.656C492.971 335.634 492.929 332.582 492.513 329.57C491.734 325.482 489.318 318.551 485.148 316.712Z" fill="#FBBEBE"/>
<path d="M468.825 249.775C467.515 248.876 466.892 247.389 465.312 246.878C461.031 245.504 452.218 248.928 447.79 249.73C446.204 249.944 444.65 250.356 443.166 250.955C439.58 252.579 437.305 256.222 435.943 259.927C429.125 278.442 440.246 299.37 435.787 318.593C434.779 322.922 433.001 327.033 431.765 331.31C449.287 331.924 466.351 323.786 483.821 325.17C487.469 325.45 491.574 326.507 493.289 329.738C493.388 329.665 493.485 329.588 493.58 329.508C494.155 329.022 494.63 328.426 494.976 327.756C495.322 327.086 495.533 326.354 495.597 325.602C495.661 324.851 495.576 324.094 495.348 323.375C495.119 322.656 494.751 321.989 494.266 321.412C493.709 320.907 493.197 320.353 492.738 319.758C492.272 318.862 492.04 317.863 492.063 316.854C490.772 296.152 485.81 275.846 477.409 256.887C476.9 255.511 476.115 254.253 475.103 253.192C473.454 251.516 470.814 251.048 468.825 249.775Z" fill="#C776D3"/>
<path d="M343.796 423.206C352.399 423.206 359.374 416.222 359.374 407.606C359.374 398.99 352.399 392.006 343.796 392.006C335.192 392.006 328.218 398.99 328.218 407.606C328.218 416.222 335.192 423.206 343.796 423.206Z" fill="#FBBEBE"/>
<path d="M378.29 423.206C386.893 423.206 393.868 416.222 393.868 407.606C393.868 398.99 386.893 392.006 378.29 392.006C369.686 392.006 362.712 398.99 362.712 407.606C362.712 416.222 369.686 423.206 378.29 423.206Z" fill="#FBBEBE"/>
<path d="M474.449 442.758H260.431C257.932 442.755 255.537 441.76 253.77 439.991C252.003 438.221 251.009 435.822 251.006 433.32V303.297C251.009 300.795 252.003 298.396 253.77 296.627C255.537 294.857 257.932 293.862 260.431 293.859H474.449C476.947 293.862 479.343 294.857 481.11 296.627C482.876 298.396 483.87 300.795 483.873 303.297V433.32C483.87 435.822 482.876 438.221 481.11 439.991C479.343 441.76 476.947 442.755 474.449 442.758Z" fill="#3F3D56"/>
<path d="M366.921 374.553C370.365 374.553 373.156 371.758 373.156 368.309C373.156 364.86 370.365 362.064 366.921 362.064C363.477 362.064 360.685 364.86 360.685 368.309C360.685 371.758 363.477 374.553 366.921 374.553Z" fill="white"/>
<path d="M717.634 416.533H0V438.617H42.4473V443.751H675.203V438.617H717.634V416.533Z" fill="#AFAFAF"/>
<path d="M307.815 151.381C298.541 151.381 291.023 143.241 291.023 133.199V124.108C291.023 114.066 298.541 105.926 307.815 105.926V151.381H307.815Z" fill="#C776D3"/>
<path d="M414.994 105.926C424.268 105.926 431.786 114.066 431.786 124.108V133.199C431.786 143.241 424.268 151.381 414.994 151.381V105.926Z" fill="#C776D3"/>
<path d="M423.793 125.536H421.129C421.129 88.9505 393.639 59.1856 359.85 59.1856C326.061 59.1856 298.571 88.9505 298.571 125.536H295.907C295.907 87.3597 324.592 56.3008 359.85 56.3008C395.109 56.3008 423.793 87.3597 423.793 125.536Z" fill="#C776D3"/>
</g>
<defs>
<clipPath id="clip0_744_1961">
<rect width="717.634" height="395.059" fill="white" transform="translate(0 48.6914)"/>
</clipPath>
</defs>
</svg>
