<svg width="80" height="80" viewBox="0 0 80 80" fill="none" xmlns="http://www.w3.org/2000/svg">
<path d="M71.2109 54.6641C71.183 54.5864 71.14 54.515 71.0844 54.454C71.0287 54.3931 70.9616 54.3437 70.8867 54.3089C70.8119 54.274 70.7309 54.2543 70.6485 54.2509C70.566 54.2475 70.4837 54.2605 70.4062 54.2891L65.625 56.0312V13.9844C65.625 11.0469 63.25 8.67188 60.3125 8.67188H19.6875C16.75 8.67188 14.375 11.0469 14.375 13.9844V56.0312L9.58594 54.2891C9.51562 54.2656 9.44531 54.25 9.375 54.25C9.03125 54.25 8.75 54.5312 8.75 54.875V59.5312C8.75 59.7891 8.91406 60.0234 9.16406 60.1172L39.1406 71.0234C39.6953 71.2266 40.2969 71.2266 40.8516 71.0234L70.8359 60.125C71.0859 60.0312 71.25 59.7969 71.25 59.5391V54.8828C71.25 54.8047 71.2344 54.7344 71.2109 54.6641ZM52.1641 25.2109L44.0625 40.1797H48.5625C48.9062 40.1797 49.1875 40.4609 49.1875 40.8047V42.9219C49.1875 43.2656 48.9062 43.5469 48.5625 43.5469H42.6016V46.5938H48.5625C48.9062 46.5938 49.1875 46.875 49.1875 47.2188V49.3359C49.1875 49.6797 48.9062 49.9609 48.5625 49.9609H42.6016V54.9219C42.6016 55.2656 42.3203 55.5469 41.9766 55.5469H38.0781C37.7344 55.5469 37.4531 55.2656 37.4531 54.9219V49.9688H31.5156C31.1719 49.9688 30.8906 49.6875 30.8906 49.3438V47.2266C30.8906 46.8828 31.1719 46.6016 31.5156 46.6016H37.4531V43.5547H31.5156C31.1719 43.5547 30.8906 43.2734 30.8906 42.9297V40.8125C30.8906 40.4688 31.1719 40.1875 31.5156 40.1875H35.9688L27.8516 25.2188C27.6875 24.9219 27.7969 24.5391 28.1016 24.375C28.1953 24.3203 28.2969 24.2969 28.3984 24.2969H32.75C32.8652 24.2975 32.9779 24.33 33.0758 24.3906C33.1737 24.4513 33.2529 24.5378 33.3047 24.6406L39.9219 37.8281H40.1797L46.7969 24.6406C46.8984 24.4297 47.1172 24.2969 47.3516 24.2969H51.6094C51.9531 24.2969 52.2344 24.5781 52.2422 24.9141C52.2422 25.0156 52.2109 25.1172 52.1641 25.2109Z" fill="#313131"/>
</svg>
