<svg width="80" height="80" viewBox="0 0 80 80" fill="none" xmlns="http://www.w3.org/2000/svg">
<path d="M67.5 12.5H12.5C11.1744 12.5015 9.90347 13.0288 8.96611 13.9661C8.02875 14.9035 7.50149 16.1744 7.5 17.5V62.5003C7.50004 63.1569 7.62941 63.8071 7.88072 64.4137C8.13203 65.0203 8.50037 65.5715 8.96469 66.0358C9.42901 66.5 9.98023 66.8683 10.5869 67.1195C11.1935 67.3708 11.8437 67.5 12.5003 67.5L16.6847 67.4997C17.1574 67.4996 17.6204 67.3654 18.02 67.1128C18.4196 66.8602 18.7393 66.4995 18.9422 66.0725C20.1597 63.5074 22.0798 61.3404 24.4797 59.823C26.8796 58.3056 29.6607 57.5001 32.5 57.5001C35.3393 57.5001 38.1204 58.3056 40.5203 59.823C42.9202 61.3404 44.8403 63.5074 46.0578 66.0725C46.2607 66.4995 46.5805 66.8603 46.9801 67.1129C47.3798 67.3655 47.8428 67.4996 48.3156 67.4997L67.5 67.5C68.8256 67.4985 70.0965 66.9712 71.0339 66.0339C71.9712 65.0965 72.4985 63.8256 72.5 62.5V17.5C72.4985 16.1744 71.9712 14.9035 71.0339 13.9661C70.0965 13.0288 68.8256 12.5015 67.5 12.5ZM32.5 52.5C30.5222 52.5 28.5888 51.9135 26.9443 50.8147C25.2998 49.7159 24.0181 48.1541 23.2612 46.3268C22.5043 44.4996 22.3063 42.4889 22.6921 40.5491C23.078 38.6093 24.0304 36.8275 25.4289 35.4289C26.8275 34.0304 28.6093 33.078 30.5491 32.6921C32.4889 32.3063 34.4996 32.5043 36.3268 33.2612C38.1541 34.0181 39.7159 35.2998 40.8147 36.9443C41.9135 38.5888 42.5 40.5222 42.5 42.5C42.4969 45.1512 41.4424 47.693 39.5677 49.5677C37.693 51.4424 35.1512 52.4969 32.5 52.5ZM67.5 62.5L49.8231 62.4997C48.7326 60.6203 47.3427 58.9316 45.7081 57.5H60C60.663 57.5 61.2989 57.2366 61.7678 56.7678C62.2366 56.2989 62.5 55.663 62.5 55V25C62.5 24.337 62.2366 23.7011 61.7678 23.2322C61.2989 22.7634 60.663 22.5 60 22.5H20C19.337 22.5 18.7011 22.7634 18.2322 23.2322C17.7634 23.7011 17.5 24.337 17.5 25V55C17.5004 55.5554 17.6858 56.0949 18.027 56.5332C18.3682 56.9715 18.8457 57.2837 19.3841 57.4203C17.7098 58.8687 16.2881 60.5853 15.1769 62.5H12.5V17.5H67.5V62.5Z" fill="#313131"/>
</svg>
