<svg width="80" height="80" viewBox="0 0 80 80" fill="none" xmlns="http://www.w3.org/2000/svg">
<path d="M39.5 7C33.0721 7 26.7886 8.90609 21.444 12.4772C16.0994 16.0484 11.9338 21.1242 9.47393 27.0628C7.01408 33.0014 6.37047 39.536 7.62449 45.8404C8.87851 52.1448 11.9738 57.9357 16.519 62.481C21.0642 67.0262 26.8552 70.1215 33.1596 71.3755C39.464 72.6295 45.9986 71.9859 51.9372 69.5261C57.8758 67.0662 62.9516 62.9006 66.5228 57.556C70.0939 52.2114 72 45.9279 72 39.5C72 30.8805 68.5759 22.614 62.481 16.519C56.386 10.4241 48.1195 7 39.5 7ZM39.5 20.9286C40.1887 20.9286 40.8619 21.1328 41.4346 21.5154C42.0072 21.898 42.4535 22.4419 42.7171 23.0782C42.9806 23.7144 43.0496 24.4146 42.9152 25.09C42.7809 25.7655 42.4492 26.386 41.9623 26.873C41.4753 27.3599 40.8548 27.6916 40.1793 27.8259C39.5039 27.9603 38.8037 27.8913 38.1674 27.6278C37.5312 27.3642 36.9873 26.9179 36.6047 26.3453C36.2221 25.7726 36.0179 25.0994 36.0179 24.4107C36.0179 23.4872 36.3847 22.6015 37.0378 21.9485C37.6908 21.2954 38.5765 20.9286 39.5 20.9286ZM48.7857 58.3616H30.2143V53.1384H36.8884V39.7902H32.5357V34.567H42.1116V53.1384H48.7857V58.3616Z" fill="#313131"/>
</svg>
