<svg width="500" height="500" viewBox="0 0 500 500" fill="none" xmlns="http://www.w3.org/2000/svg">
<path d="M500 250C500.057 284.826 492.801 319.277 478.703 351.122C478.248 352.151 477.787 353.173 477.319 354.189C477.089 354.701 476.852 355.206 476.615 355.717C476.378 356.222 476.141 356.733 475.898 357.238C475.586 357.893 475.274 358.541 474.956 359.19C474.564 360.006 474.165 360.817 473.753 361.627C473.703 361.739 473.647 361.852 473.585 361.964C473.242 362.65 472.899 363.335 472.544 364.021C472.469 364.171 472.394 364.32 472.313 364.464C471.908 365.262 471.49 366.06 471.066 366.852V366.858C470.617 367.699 470.166 368.539 469.713 369.377C468.591 371.446 467.438 373.497 466.253 375.53C465.898 376.135 465.549 376.739 465.187 377.338C464.857 377.899 464.526 378.454 464.19 379.009C463.959 379.395 463.728 379.776 463.491 380.156C463.117 380.773 462.737 381.39 462.35 382.007C462.344 382.014 462.344 382.014 462.344 382.02C461.49 383.391 460.617 384.757 459.738 386.11H459.732C459.327 386.739 458.915 387.363 458.504 387.986V387.992C457.263 389.863 455.998 391.714 454.707 393.547V393.554C454.702 393.554 454.698 393.556 454.695 393.56V393.566L454.682 393.579C453.66 395.044 452.616 396.496 451.552 397.936V397.943C450.873 398.865 450.187 399.788 449.495 400.698C448.928 401.446 448.354 402.192 447.774 402.936C447.656 403.098 447.531 403.254 447.4 403.416V403.423C447.245 403.628 447.089 403.828 446.92 404.034V404.04C444.458 407.188 441.92 410.274 439.308 413.298H439.302C439.165 413.466 439.021 413.628 438.878 413.79C438.741 413.953 438.591 414.115 438.448 414.283H438.442C438.223 414.539 437.999 414.794 437.774 415.05C437.556 415.305 437.326 415.561 437.095 415.817V415.823C423.479 431.185 408.026 444.816 391.085 456.409C388.828 457.961 386.542 459.472 384.227 460.941C383.654 461.309 383.08 461.671 382.5 462.032C382.326 462.151 382.151 462.257 381.976 462.363C381.671 462.556 381.359 462.749 381.048 462.943C380.742 463.13 380.43 463.323 380.119 463.51C378.878 464.271 377.625 465.019 376.372 465.754C376.06 465.941 375.742 466.122 375.424 466.309C375.112 466.49 374.794 466.671 374.476 466.852C374.472 466.858 374.467 466.864 374.46 466.868C374.454 466.872 374.447 466.875 374.439 466.877L374.427 466.883L374.414 466.895H374.408C372.837 467.799 371.259 468.691 369.663 469.551C366.808 471.11 363.924 472.612 361.01 474.059C360.287 474.42 359.558 474.776 358.828 475.131C358.223 475.424 357.612 475.717 357.008 476.004C356.839 476.085 356.677 476.166 356.509 476.241C356.004 476.478 355.499 476.714 354.994 476.945C354.445 477.207 353.89 477.456 353.342 477.706C352.725 477.986 352.114 478.261 351.496 478.535C349.177 479.57 346.833 480.567 344.483 481.527C336.086 484.966 327.505 487.934 318.778 490.418C318.373 490.536 317.961 490.655 317.55 490.767C313.816 491.814 310.054 492.772 306.266 493.641C299.651 495.162 292.976 496.411 286.241 497.388C286.228 497.388 286.21 497.394 286.197 497.394C285.393 497.512 284.582 497.625 283.778 497.737C283.71 497.749 283.635 497.762 283.56 497.768C283.554 497.774 283.548 497.774 283.535 497.768C283.535 497.768 283.535 497.774 283.529 497.768C282.637 497.886 281.746 498.005 280.848 498.117C280.786 498.13 280.723 498.136 280.661 498.142C279.826 498.242 278.984 498.342 278.142 498.435C277.238 498.535 276.334 498.628 275.424 498.722C274.732 498.79 274.04 498.859 273.348 498.921C273.286 498.934 273.224 498.94 273.161 498.94C272.531 498.996 271.902 499.052 271.272 499.102C271.247 499.102 271.216 499.108 271.191 499.108C270.642 499.158 270.094 499.196 269.545 499.239C263.092 499.751 256.577 500.004 250 500C242.862 500 235.796 499.703 228.803 499.108C228.778 499.108 228.753 499.102 228.728 499.102C227.238 498.978 225.75 498.84 224.265 498.691C223.872 498.653 223.485 498.61 223.092 498.572C223.018 498.566 222.943 498.56 222.868 498.547C222.75 498.535 222.631 498.522 222.506 498.51C222.444 498.504 222.375 498.497 222.313 498.485C221.796 498.429 221.278 498.373 220.755 498.31C220.175 498.242 219.589 498.173 219.009 498.098C218.429 498.03 217.843 497.955 217.263 497.874C217.139 497.862 217.008 497.849 216.883 497.824C216.459 497.774 216.035 497.718 215.617 497.656C215.412 497.631 215.212 497.6 215.013 497.569C214.607 497.512 214.208 497.456 213.803 497.394C213.791 497.394 213.772 497.388 213.76 497.388C201.028 495.549 188.461 492.716 176.172 488.915H176.166C175.499 488.709 174.832 488.497 174.165 488.285C173.965 488.229 173.766 488.167 173.566 488.098C171.833 487.544 170.11 486.97 168.398 486.378C166.035 485.567 163.689 484.719 161.359 483.834C160.723 483.591 160.094 483.348 159.458 483.105C158.192 482.606 156.933 482.107 155.68 481.596C153.541 480.723 151.417 479.823 149.308 478.896H149.302V478.89C147.332 478.024 145.376 477.13 143.435 476.209C143.378 476.192 143.323 476.167 143.273 476.135C143.267 476.135 143.267 476.128 143.261 476.128C142.831 475.929 142.4 475.723 141.97 475.517L141.958 475.511C131.264 470.385 120.953 464.497 111.104 457.893C107.943 455.779 104.836 453.595 101.783 451.34C99.3207 449.526 96.8934 447.666 94.5014 445.761C82.5868 436.291 71.5602 425.755 61.5588 414.283H61.5526V414.277C60.8481 413.473 60.1623 412.675 59.464 411.864V411.858C59.3643 411.746 59.2708 411.633 59.1772 411.521C58.7346 411.004 58.3044 410.492 57.8742 409.969V409.963C57.2882 409.271 56.7147 408.576 56.1536 407.88C56.0289 407.731 55.9104 407.587 55.792 407.438H55.7857V407.431C55.3244 406.87 54.8693 406.303 54.4204 405.736C54.1897 405.455 53.9653 405.168 53.7408 404.882H53.7346V404.875C52.3755 403.161 51.0434 401.43 49.7384 399.682V399.676C49.3768 399.196 49.0214 398.716 48.6723 398.229H48.666C46.9952 395.973 45.368 393.689 43.7845 391.378V391.372C43.186 390.505 42.5937 389.632 42.0077 388.753C41.4217 387.874 40.8419 386.993 40.2683 386.11H40.262C39.6698 385.199 39.0838 384.285 38.504 383.367C38.4728 383.317 38.4416 383.273 38.4167 383.229C37.8431 382.325 37.2778 381.415 36.7209 380.499C36.2721 379.769 35.8294 379.046 35.3992 378.317C35.1 377.824 34.807 377.338 34.5202 376.839C34.4142 376.671 34.3207 376.502 34.2272 376.34C33.5663 375.212 32.9179 374.084 32.2696 372.949C31.5152 371.615 30.7671 370.268 30.0376 368.921C29.7384 368.367 29.4391 367.805 29.1461 367.244C29.0401 367.064 28.9466 366.883 28.8531 366.696C28.504 366.035 28.1549 365.374 27.812 364.707C27.4691 364.046 27.1262 363.379 26.7895 362.712C26.4529 362.045 26.1162 361.378 25.7858 360.704C25.5364 360.199 25.287 359.688 25.0439 359.183C25.0186 359.141 24.9957 359.097 24.9753 359.052C24.8631 358.815 24.7446 358.585 24.6386 358.348C24.6138 358.312 24.5948 358.272 24.5825 358.229C24.3269 357.706 24.0775 357.188 23.8344 356.665C23.5102 355.991 23.1985 355.312 22.8868 354.632C22.6623 354.158 22.4504 353.678 22.2322 353.198C21.9204 352.525 21.615 351.845 21.3157 351.16C20.9978 350.455 20.6923 349.744 20.3867 349.034C20.3057 348.853 20.2309 348.678 20.1561 348.497C20.0127 348.173 19.8755 347.849 19.7384 347.525C19.3705 346.665 19.0089 345.792 18.6536 344.925C18.2483 343.946 17.8535 342.965 17.469 341.982C17.1012 341.066 16.7438 340.148 16.3967 339.227L16.2658 338.89V338.884C10.8487 324.647 6.75006 309.943 4.0214 294.956V294.95C2.46554 286.394 1.35848 277.762 0.704739 269.09C0.667332 268.616 0.636127 268.142 0.604986 267.668C0.193514 261.802 -0.00806564 255.912 0.000246907 250C0.000246907 247.375 0.0418078 244.763 0.124933 242.163C1.74138 187.811 21.1165 135.484 55.287 93.1858C56.7895 91.3217 58.319 89.4805 59.8756 87.6621C105.723 34.0087 173.89 0 250 0C338.984 0 417.114 46.49 461.409 116.509C463.716 120.137 465.923 123.832 468.03 127.594C489.056 164.959 500.069 207.125 500 250Z" fill="#F5F5F5"/>
<path d="M31.327 235.672C35.8268 235.672 40.1424 237.459 43.3243 240.641C46.5062 243.823 48.2938 248.139 48.2938 252.639V252.639C48.2931 256.574 46.9244 260.388 44.422 263.426C41.9195 266.463 38.4389 268.537 34.576 269.291V297.041H23.7461V235.672H31.327Z" fill="#3F3D56"/>
<path d="M446.922 398.227V404.037C444.459 407.185 441.922 410.272 439.31 413.295C439.029 413.626 438.742 413.95 438.449 414.28C438.007 414.798 437.552 415.309 437.096 415.82V398.227H446.922Z" fill="#CACACA"/>
<path d="M418.094 386.107C415.922 386.11 413.84 386.974 412.304 388.51C410.768 390.045 409.904 392.128 409.902 394.299V406.089C409.904 408.261 410.768 410.343 412.304 411.879C413.84 413.414 415.922 414.278 418.094 414.281H438.449C438.742 413.95 439.029 413.626 439.31 413.296C441.922 410.272 444.459 407.186 446.922 404.038C447.084 403.832 447.246 403.626 447.402 403.42C448.811 401.619 450.195 399.786 451.554 397.94C452.614 396.494 453.667 395.035 454.696 393.564C454.702 393.558 454.709 393.558 454.709 393.551C456.429 391.107 458.106 388.626 459.74 386.107H418.094Z" fill="#3F3D56"/>
<path d="M470.507 285.197C469.255 284.765 467.94 284.546 466.616 284.549H463.268C462.049 284.55 460.837 284.732 459.671 285.091C457.213 285.864 455.065 287.4 453.539 289.476C452.014 291.552 451.189 294.061 451.186 296.637V394.985C451.186 395.353 451.205 395.715 451.236 396.07C451.29 396.701 451.397 397.327 451.554 397.94C452.614 396.494 453.667 395.035 454.696 393.564C454.702 393.558 454.709 393.558 454.709 393.551C456.429 391.107 458.106 388.626 459.74 386.107C460.619 384.755 461.492 383.389 462.346 382.018C468.518 372.115 473.984 361.791 478.705 351.12V296.637C478.702 294.114 477.91 291.654 476.44 289.603C474.97 287.551 472.896 286.011 470.507 285.197Z" fill="#3F3D56"/>
<path d="M57.8758 398.227V409.966C55.0703 406.612 52.3584 403.183 49.7399 399.679C49.3783 399.199 49.023 398.713 48.6676 398.227H57.8758Z" fill="#CACACA"/>
<path d="M76.8784 386.107H40.2637C41.417 387.884 42.5912 389.64 43.7861 391.376C45.3697 393.688 46.9968 395.972 48.6677 398.227C49.023 398.713 49.3784 399.2 49.74 399.68C52.3647 403.183 55.0766 406.612 57.8759 409.967C58.3996 410.602 58.9295 411.232 59.4657 411.862C60.1515 412.672 60.8476 413.479 61.5542 414.281H76.8784C79.0496 414.278 81.131 413.414 82.6657 411.878C84.2004 410.342 85.063 408.26 85.0642 406.089V394.299C85.063 392.128 84.2005 390.046 82.6658 388.51C81.131 386.974 79.0496 386.11 76.8784 386.107Z" fill="#3F3D56"/>
<path d="M37.2835 285.914C35.5574 285.019 33.6419 284.551 31.6975 284.549H28.3559C26.7746 284.547 25.2087 284.858 23.7486 285.465C21.5367 286.379 19.6453 287.928 18.3136 289.917C16.982 291.905 16.2699 294.244 16.2673 296.637V338.888C22.5622 355.437 30.6066 371.267 40.2636 386.107C41.4169 387.884 42.5911 389.64 43.786 391.376V296.637C43.7844 294.427 43.1775 292.259 42.0313 290.368C40.885 288.478 39.2431 286.938 37.2835 285.914Z" fill="#3F3D56"/>
<path d="M173.483 468.509L184.466 465.989L179.973 422.428L163.764 426.147L173.483 468.509Z" fill="#9E616A"/>
<path d="M183.474 430.714C183.249 429.947 183.097 429.16 183.019 428.364C182.928 427.424 182.744 426.494 182.471 425.59C182.158 424.767 181.772 423.974 181.317 423.221C181.099 422.822 180.868 422.423 180.663 422.018C180.455 421.613 180.276 421.194 180.126 420.764C173.699 401.781 164.727 375.983 158.505 360.883C154.846 351.999 132.34 349.044 111.105 348.289C108.518 348.196 105.949 348.133 103.437 348.102C102.57 348.09 101.71 348.077 100.856 348.071C98.6738 348.059 96.5478 348.059 94.503 348.084C94.2349 348.084 93.9668 348.084 93.6987 348.09C92.2087 348.102 90.7644 348.123 89.3658 348.152C79.7523 348.339 72.6887 348.776 71.4294 348.857L60.2137 341.806L58.0254 340.428L57.7947 341.806L56.0304 352.317L53.0192 370.253L60.569 372.373L65.4693 373.744L94.503 381.887L100.675 383.62L100.712 383.632L111.105 383.613L139.522 383.564L140.893 387.198C140.401 387.963 140.077 388.824 139.943 389.724C139.809 390.624 139.868 391.542 140.116 392.417C140.364 393.292 140.796 394.104 141.383 394.8C141.969 395.495 142.697 396.058 143.518 396.45L144.584 396.955L157.57 431.319C157.61 434.428 158.581 437.453 160.357 440.004C160.575 440.322 160.812 440.633 161.062 440.939L161.348 441.282L166.342 451.051L169.316 450.365L181.972 447.466L182.034 447.342C182.04 447.323 182.202 446.98 182.439 446.382V446.363C183.431 443.888 185.625 437.123 183.474 430.714Z" fill="#2F2E41"/>
<path d="M214.328 471.406C213.856 469.312 212.973 467.332 211.732 465.58C210.491 463.828 208.915 462.339 207.097 461.199C205.278 460.059 203.251 459.289 201.134 458.935C199.016 458.581 196.85 458.65 194.759 459.137L185.987 455.178L183.53 456.905L173.343 464.049L172.502 464.243L169.771 464.866L173.543 481.306L214.453 471.923L214.328 471.406Z" fill="#2F2E41"/>
<path d="M160.064 446.057L156.355 476.131L156.23 477.116L155.681 481.599C153.543 480.726 151.411 479.822 149.303 478.893C147.333 478.027 145.378 477.133 143.437 476.212V446.063L160.064 446.057Z" fill="#9E616A"/>
<path d="M79.5689 239.303C91.9895 239.303 102.058 229.234 102.058 216.814C102.058 204.393 91.9895 194.324 79.5689 194.324C67.1483 194.324 57.0794 204.393 57.0794 216.814C57.0794 229.234 67.1483 239.303 79.5689 239.303Z" fill="#9E616A"/>
<path d="M162.452 457.535C161.828 456.681 161.18 455.79 161.143 454.936C160.999 451.924 160.85 448.944 160.694 446.027C160.582 443.988 160.469 441.974 160.357 440.004C160.345 439.755 160.326 439.505 160.313 439.262C160.12 436.002 161.087 432.56 162.015 429.225C162.321 428.134 162.626 427.03 162.901 425.927C163.587 423.468 163.875 420.915 163.755 418.364C162.159 398.171 155.027 379.181 151.828 375.983C146.966 371.12 124.977 359.886 111.105 353.053C108.643 351.837 106.436 350.765 104.628 349.892C103.025 349.113 101.735 348.495 100.856 348.071C100.183 347.754 99.7462 347.548 99.5965 347.473L99.5217 347.436L94.503 347.997L93.6988 348.09L89.2723 348.589L60.4756 351.818L56.0305 352.317L49.74 353.028L44.0604 353.664L43.8484 353.682L43.811 353.894C43.811 353.901 43.7986 353.944 43.7861 354.025C42.8094 360.188 42.8094 366.466 43.7861 372.629C44.5217 376.812 45.912 381.064 48.3808 384.643C48.7175 385.129 49.0666 385.596 49.4407 386.045C49.4534 386.069 49.4703 386.09 49.4906 386.108C49.5716 386.207 49.6527 386.307 49.74 386.407V386.413C52.5639 389.697 56.3545 392.004 60.5691 393.003C61.1926 393.171 61.8285 393.308 62.4831 393.421C69.4594 394.655 77.3397 395.79 85.0641 396.787C88.2624 397.199 91.4357 397.585 94.503 397.947C100.644 398.67 106.38 399.281 111.105 399.767C117.726 400.441 122.377 400.858 123.412 400.946L134.977 454.898C134.069 456.433 133.707 458.23 133.949 459.996C134.192 461.763 135.024 463.396 136.311 464.63L137.259 465.547L138.356 470.684L141.972 475.522L142.427 476.133H158.381L158.468 476.027C158.524 475.952 164.135 468.745 163.755 460.16C163.717 459.275 163.1 458.433 162.452 457.535Z" fill="#2F2E41"/>
<path d="M162.016 276.715C160.808 276.385 159.542 276.324 158.308 276.536C157.073 276.747 155.9 277.227 154.872 277.942C153.843 278.656 152.983 279.587 152.353 280.669C151.723 281.752 151.338 282.959 151.225 284.207L132.539 290.047L133.318 302.268L159.591 293.65C161.699 293.701 163.752 292.976 165.362 291.614C166.972 290.252 168.026 288.347 168.325 286.26C168.624 284.172 168.147 282.048 166.984 280.289C165.821 278.53 164.054 277.258 162.016 276.715Z" fill="#9E616A"/>
<path d="M149.824 296.938L135.859 302.224L135.501 302.917C135.078 303.739 134.496 304.47 133.789 305.068C133.083 305.665 132.266 306.118 131.384 306.4C130.503 306.682 129.575 306.787 128.653 306.71C127.731 306.633 126.833 306.375 126.01 305.952L94.62 317.832C94.62 317.832 80.6016 303.804 70.621 291.284L74.0226 270.362C74.8104 265.508 76.4849 260.84 78.9624 256.592C99.4307 261.08 111.18 289.693 111.18 289.693L148.069 282.654L149.824 296.938Z" fill="#C776D3"/>
<path d="M76.373 238.101C70.7428 239.622 64.5357 237.6 60.1418 233.765C55.748 229.93 52.9994 224.497 51.4158 218.884C50.2559 214.773 49.706 210.21 51.5363 206.351C53.3666 202.492 58.2926 199.888 62.093 201.837C59.7486 199.106 60.9198 194.588 63.6579 192.251C66.3961 189.915 70.156 189.245 73.7369 188.879C78.9339 188.347 84.3021 188.288 89.2474 189.971C94.1927 191.655 98.686 195.336 100.234 200.325C101.814 201.062 103.595 201.252 105.296 200.868C106.996 200.484 108.522 199.547 109.633 198.203C109.92 199.747 109.689 201.341 108.978 202.741C108.267 204.14 107.115 205.266 105.699 205.945L113.276 203.488C114.58 206.246 112.296 209.66 109.376 210.543C106.456 211.427 103.304 210.461 100.534 209.185C97.7626 207.909 95.0774 206.296 92.0677 205.798C89.0579 205.3 85.5226 206.267 84.1304 208.982C83.4012 210.404 83.3632 212.069 82.9399 213.609C82.5165 215.15 81.4441 216.747 79.8513 216.873C78.8449 216.953 77.8596 216.417 76.8561 216.527C76.2403 216.648 75.6731 216.946 75.2242 217.385C74.7752 217.823 74.464 218.384 74.3284 218.996C74.0786 220.226 74.0755 221.494 74.3195 222.725L76.2442 237.437L76.373 238.101Z" fill="#2F2E41"/>
<path d="M104.628 349.892L103.437 348.102L94.7461 335.066L94.5715 334.81L97.2586 320.87L98.094 316.519L99.9207 307.049L99.3907 285.372L99.0104 270.035L98.9543 267.628L97.0279 261.756C96.1146 259.009 94.6474 256.48 92.7172 254.323C90.7869 252.167 88.4347 250.429 85.8059 249.218L72.8384 243.283C71.3123 242.588 69.5727 242.528 68.0023 243.116C66.432 243.704 65.1595 244.892 64.4647 246.418C64.4067 246.545 64.3529 246.674 64.3034 246.806C62.5266 247.049 54.8147 248.345 48.2748 253.42C43.6932 256.906 40.4948 261.902 39.2473 267.522C39.2349 267.566 39.2286 267.61 39.2162 267.653C38.3496 271.525 37.7012 277.635 37.2835 285.914C37.0029 291.388 36.8263 297.801 36.7536 305.153C36.6372 317.409 37.3266 329.659 38.8172 341.824C38.9606 342.984 39.1102 344.137 39.266 345.297C39.397 346.269 40.3321 347.198 41.2361 348.09C42.0653 348.906 42.9194 349.754 43.0379 350.521C43.1439 351.195 42.7137 351.899 42.2024 352.635C42.1401 352.728 42.0715 352.822 42.0092 352.915C41.3733 353.819 40.7187 354.761 40.887 355.752C41.2798 357.984 41.5104 360.253 41.7286 362.448C41.9723 365.469 42.4096 368.472 43.0379 371.438C43.2561 372.348 43.5054 373.264 43.786 374.181C44.4406 376.332 45.2324 378.476 46.0054 380.571C46.6725 382.392 47.3645 384.262 47.9506 386.107C48.0628 386.45 48.1688 386.787 48.2685 387.123L48.3184 387.298L48.4992 387.329H48.5117C48.7573 386.891 49.0499 386.482 49.3845 386.107C49.3996 386.083 49.4186 386.062 49.4406 386.045C49.5279 385.939 49.6276 385.827 49.7399 385.708C51.1052 384.218 54.0728 381.544 60.569 377.036C62.0217 376.032 63.6488 374.941 65.4693 373.744C72.1463 369.374 81.473 363.682 94.5029 356.332C97.7698 354.486 101.276 352.535 105.02 350.478L104.628 349.892Z" fill="#C776D3"/>
<path d="M174.559 487.036C173.045 485.515 171.244 484.31 169.261 483.489C167.278 482.668 165.153 482.249 163.007 482.254L156.23 477.117L155.338 476.438L149.303 478.894C151.411 479.823 153.543 480.727 155.681 481.6C162.371 484.33 169.202 486.77 176.174 488.919C175.684 488.251 175.144 487.622 174.559 487.036Z" fill="#2F2E41"/>
<path d="M325.077 468.085L316.59 464.026L328.249 428.549L340.775 434.54L325.077 468.085Z" fill="#FFB6B6"/>
<path d="M381.978 462.368C379.509 463.908 377.009 465.404 374.478 466.857V466.875L374.441 466.882L374.428 466.888L373.468 467.125L372.09 463.484L368.911 455.086L360.245 432.206L373.717 428.883L374.478 431.969L380.176 455.08L381.81 461.688L381.978 462.368Z" fill="#FFB6B6"/>
<path d="M347.617 313.886C348.828 315.852 350.759 317.267 352.998 317.829C355.238 318.391 357.608 318.055 359.603 316.893C360.005 316.651 360.385 316.375 360.741 316.069L387.574 331.468L386.409 315.661L361.106 303.461C359.729 302.078 357.932 301.191 355.997 300.939C354.062 300.687 352.098 301.084 350.413 302.068C348.484 303.227 347.094 305.104 346.549 307.286C346.004 309.469 346.349 311.779 347.507 313.708C347.543 313.768 347.58 313.827 347.617 313.886Z" fill="#FFB6B6"/>
<path d="M376.038 325.671L380.781 328.562L402.084 341.552C403.482 342.427 405.039 343.018 406.666 343.291C408.292 343.564 409.957 343.514 411.564 343.144C413.172 342.774 414.69 342.091 416.034 341.134C417.377 340.177 418.519 338.964 419.394 337.566L419.401 337.555C420.978 334.956 421.536 331.865 420.967 328.879L411.499 281.576C411.15 279.72 410.403 277.96 409.311 276.418C408.218 274.876 406.806 273.589 405.17 272.643C403.534 271.697 401.713 271.116 399.832 270.939C397.951 270.761 396.053 270.993 394.27 271.616C391.271 272.67 388.787 274.826 387.322 277.646C385.858 280.466 385.522 283.739 386.385 286.797L396.285 320.367L381.109 313.292L376.038 325.671Z" fill="#C776D3"/>
<path d="M463.387 372.311C463.381 372.293 463.368 372.224 463.35 372.118L463.331 372.05C463.287 371.825 463.237 371.576 463.181 371.301C461.909 364.985 460.275 358.746 458.287 352.617C457.109 348.863 455.549 345.241 453.63 341.806C453.568 341.694 453.499 341.582 453.431 341.47L453.2 341.096L451.261 341.806L451.186 341.831L421.71 352.636L413.187 355.759L412.919 355.859L411.467 361.781L391.086 359.144L374.478 356.993L369.709 356.376C367.641 356.107 365.541 356.251 363.529 356.801C361.518 357.352 359.637 358.296 357.994 359.581C356.28 360.91 354.848 362.566 353.781 364.455C352.714 366.343 352.033 368.424 351.778 370.578C351.716 371.052 351.679 371.532 351.66 372.006L350.22 425.728V425.796L350.887 427.131L364.821 455.086H374.478L380.176 455.079H384.808L375.176 430.709L375.394 430.379C376.301 428.989 376.872 427.409 377.064 425.761C377.255 424.113 377.061 422.444 376.498 420.884L377.583 417.742C379.833 411.252 378.767 408.134 377.421 404.194C376.211 400.99 375.5 397.62 375.313 394.2L375.089 389.755C380.744 390.747 386.012 391.85 391.086 392.96C392.782 393.328 394.461 393.7 396.124 394.076C400.856 395.129 405.426 396.146 409.902 396.993C418.967 398.72 427.651 399.774 436.573 399.119C436.747 399.107 436.922 399.094 437.096 399.076C439.266 398.901 441.448 398.621 443.655 398.228C444.896 398.003 446.143 397.748 447.402 397.449C447.751 397.361 448.106 397.274 448.456 397.187C449.425 396.931 450.359 396.556 451.236 396.071C452.484 395.374 453.645 394.533 454.696 393.565C454.702 393.558 454.709 393.558 454.709 393.552C456.429 391.108 458.106 388.627 459.74 386.108C460.619 384.755 461.492 383.39 462.346 382.018C463.593 378.596 464.066 375.142 463.387 372.311Z" fill="#2F2E41"/>
<path d="M463.593 362.216C463.499 361.817 463.381 361.412 463.256 361.019C462.266 358.045 461.113 355.127 459.802 352.279C458.331 349.037 456.566 345.564 454.465 341.805C453.449 339.984 452.356 338.091 451.186 336.125C450.6 335.14 449.991 334.137 449.359 333.114C449.335 333.067 449.308 333.021 449.278 332.977L449.098 332.678L419.933 336.58L409.073 338.033L408.424 343.445L408.268 344.785C408.262 344.785 408.262 344.785 408.268 344.791L407.832 348.445V348.451L407.252 353.276L407.202 353.27L391.086 351.182L374.478 349.031L365.556 347.877C363.489 347.608 361.388 347.752 359.377 348.303C357.366 348.853 355.485 349.797 353.842 351.082C352.128 352.411 350.696 354.067 349.629 355.956C348.561 357.844 347.881 359.925 347.626 362.079C347.57 362.516 347.533 362.965 347.514 363.407L339.098 383.351C334.061 395.279 330.854 407.898 329.584 420.782L323.412 440.514L324.291 440.595L337.371 441.811L340.825 442.135L348.431 431.032C349.297 429.766 350.12 428.463 350.887 427.129C352.149 424.95 353.272 422.693 354.247 420.371L370.7 381.219C371.972 381.437 373.231 381.645 374.478 381.842C380.245 382.778 385.781 383.54 391.086 384.13C408.337 386.057 423.275 386.206 436.573 384.573C440.307 384.118 443.917 383.519 447.402 382.778C448.68 382.509 449.941 382.221 451.186 381.911C451.479 381.842 451.766 381.774 452.053 381.699C454.629 381.034 456.998 379.734 458.942 377.918C460.886 376.101 462.344 373.826 463.181 371.3C464.181 368.373 464.324 365.222 463.593 362.216Z" fill="#2F2E41"/>
<path d="M401.576 244.467C412.717 244.467 421.749 235.234 421.749 223.844C421.749 212.454 412.717 203.221 401.576 203.221C390.434 203.221 381.402 212.454 381.402 223.844C381.402 235.234 390.434 244.467 401.576 244.467Z" fill="#FFB6B6"/>
<path d="M449.478 333.808C449.447 333.577 449.409 333.346 449.36 333.116C448.879 330.584 447.633 328.103 446.429 325.697C445.282 323.402 444.191 321.233 443.742 319.076C443.3 316.95 443.562 314.818 443.817 312.76C444.091 310.528 444.378 308.222 443.736 305.983C440.479 294.553 436.007 283.505 430.394 273.028C428.978 268.422 426.264 264.321 422.576 261.218C418.888 258.115 414.384 256.142 409.603 255.535C410.161 254.492 410.393 253.306 410.27 252.131C410.192 251.371 409.963 250.634 409.599 249.963C409.234 249.292 408.739 248.7 408.144 248.222C407.572 247.761 406.914 247.418 406.209 247.212C405.504 247.007 404.765 246.943 404.035 247.025L394.659 248.078C393.156 248.267 391.788 249.041 390.852 250.233C389.917 251.426 389.49 252.939 389.665 254.444C389.718 254.907 389.822 255.363 389.977 255.803C381.274 266.887 376.803 276.987 376.392 286.538V286.545C376.342 287.648 376.348 288.753 376.411 289.855C376.608 293.421 377.383 296.931 378.705 300.248C380.266 304.08 382.356 307.675 384.914 310.927C385.438 311.588 385.98 312.237 386.542 312.872C387.065 313.496 387.651 314.15 388.3 314.836L389.939 317.405L391.467 319.805L399.634 338.652L403.792 338.515L404.372 342.66L404.509 343.627L407.202 353.271L407.402 353.995L411.086 352.243L433.069 341.806L449.503 334.001L449.478 333.808Z" fill="#C776D3"/>
<path opacity="0.2" d="M378.952 300.148C380.826 304.739 383.461 308.981 386.746 312.696C387.309 313.368 387.903 314.028 388.524 314.689L391.716 319.696C403.479 310.879 413.011 276.16 413.011 276.16L399.738 273.578L378.952 300.148Z" fill="black"/>
<path d="M370.916 246.395C372.078 248.391 372.416 250.762 371.857 253.004C371.297 255.245 369.885 257.18 367.921 258.396C367.518 258.637 367.096 258.844 366.659 259.016L367.598 289.94L354.206 281.51L355.367 253.436C354.797 251.568 354.862 249.563 355.551 247.736C356.24 245.908 357.515 244.36 359.176 243.333C361.097 242.171 363.4 241.82 365.58 242.357C367.76 242.893 369.637 244.274 370.799 246.194C370.839 246.261 370.878 246.327 370.916 246.395Z" fill="#FFB6B6"/>
<path d="M368.775 278.267L354.048 280.361L354.681 310.859C354.718 313.034 355.31 315.164 356.402 317.047C357.494 318.929 359.049 320.501 360.92 321.612C363.205 322.957 365.865 323.522 368.499 323.223C371.133 322.924 373.599 321.777 375.524 319.954L410.294 286.511C412.74 284.19 414.204 281.021 414.385 277.653C414.566 274.286 413.449 270.978 411.265 268.409C409.125 265.876 406.067 264.297 402.763 264.019C399.458 263.741 396.179 264.787 393.646 266.927C393.547 267.01 393.449 267.096 393.353 267.182C393.009 267.489 392.682 267.815 392.374 268.157L369.415 294.569L368.775 278.267Z" fill="#C776D3"/>
<path d="M382.352 461.586L381.81 461.686L374.478 463.039L372.09 463.481L368.331 464.173L369.665 469.554C371.267 468.687 372.851 467.795 374.428 466.885L374.441 466.879L374.478 466.873V466.854C377.009 465.408 379.509 463.911 381.978 462.365C382.153 462.259 382.327 462.153 382.502 462.035L382.352 461.586Z" fill="#2F2E41"/>
<path d="M327.789 462.293L318.605 457.891L317.165 457.199L314.865 462.848L298.805 466.382C298.011 466.557 297.293 466.98 296.757 467.591C296.22 468.202 295.894 468.968 295.824 469.778C295.754 470.588 295.946 471.399 296.37 472.093C296.794 472.786 297.429 473.326 298.181 473.633L313.873 480.036L318.855 475.553L317.633 481.57L323.543 483.982L330.02 463.365L327.789 462.293Z" fill="#2F2E41"/>
<path d="M455.558 214.901C452.129 210.902 450.499 205.596 447.757 201.055C445.016 196.514 440.246 192.45 435.206 193.507C431.732 194.235 429.047 197.301 427.688 200.719C426.329 204.136 426.074 207.905 425.836 211.598C425.92 204.01 420.921 196.654 414.035 194.233C407.149 191.811 398.907 194.512 394.58 200.608C392.692 198.858 390.227 197.861 387.653 197.807C385.079 197.753 382.574 198.645 380.614 200.315C376.743 203.774 375.887 210.358 378.733 214.771C381.58 219.183 387.744 220.827 392.268 218.38L393.867 219.851C392.967 223 394.713 226.719 397.647 227.904C400.027 228.865 403.386 228.705 404.277 231.202C404.899 232.947 403.736 234.809 402.499 236.15C401.262 237.491 399.793 238.876 399.644 240.731C399.42 243.531 402.313 245.492 404.943 246.082C411.284 247.507 418.32 244.57 421.975 238.974C422.045 238.866 422.122 238.758 422.205 238.65C424.255 236.027 425.75 233.014 426.597 229.795C427.444 226.576 427.625 223.217 427.13 219.926C426.925 218.632 427.132 217.67 428.024 217.364C431.878 216.04 442.677 218.819 445.945 221.33C449.214 223.841 451.831 227.165 454.979 229.839C458.127 232.512 462.139 234.574 466.136 233.846C469.338 233.263 472.061 230.939 473.893 228.136C475.725 225.332 476.779 222.064 477.723 218.817C470.644 222.906 460.956 221.195 455.558 214.901Z" fill="#2F2E41"/>
<path d="M391.084 337.831V456.409C388.827 457.962 386.541 459.473 384.226 460.942V345.692C384.226 342.351 383.104 339.639 381.726 339.633H277.93C276.546 339.639 275.43 342.351 275.423 345.692V498.722C274.039 498.86 272.655 498.99 271.271 499.103C270.698 499.153 270.118 499.196 269.544 499.24C269.214 498.629 268.89 498.012 268.566 497.388V337.831C268.566 336.908 268.603 335.979 268.665 335.063C269.226 327.282 272.013 321.596 275.274 321.584H384.376C384.771 321.587 385.161 321.669 385.523 321.827C388.254 322.987 390.411 328.074 390.953 334.651C391.041 335.699 391.091 336.765 391.084 337.831Z" fill="#E4E4E4"/>
<path d="M224.544 337.831V498.249C224.451 498.398 224.357 498.542 224.264 498.691C221.92 498.454 219.586 498.182 217.262 497.874V345.692C217.262 342.351 216.072 339.639 214.607 339.633H104.438C102.973 339.639 101.782 342.351 101.782 345.692V451.341C99.3198 449.527 96.8925 447.667 94.5006 445.761V337.831C94.5006 336.908 94.538 335.979 94.6066 335.063C95.1989 327.282 98.1602 321.596 101.627 321.584H217.418C217.835 321.585 218.248 321.668 218.634 321.827C221.533 322.987 223.827 328.074 224.407 334.651C224.501 335.699 224.544 336.765 224.544 337.831Z" fill="#E4E4E4"/>
<path d="M187.623 284.52L194.843 316.288L199.457 321.341H202.785L189.068 263.582L188.389 273.394V273.401L187.623 284.52Z" fill="#3F3D56"/>
<path d="M211.666 322.965C211.645 322.916 211.618 322.87 211.585 322.828C211.519 322.678 211.424 322.543 211.305 322.429L210.463 321.588L206.037 317.155C205.712 316.837 205.276 316.658 204.821 316.656H204.802L201.679 316.675L198.992 316.694L195.239 316.719L169.678 316.881L152.876 316.987C152.421 316.992 151.986 317.177 151.666 317.5C151.345 317.823 151.164 318.259 151.161 318.714C151.164 318.965 151.219 319.214 151.324 319.443L151.648 320.135L152.327 321.588L153.213 323.489L153.649 324.424C153.788 324.722 154.009 324.974 154.286 325.151C154.563 325.327 154.885 325.421 155.214 325.422H210.083C210.372 325.416 210.654 325.34 210.907 325.199C211.159 325.059 211.373 324.858 211.529 324.615C211.685 324.373 211.78 324.095 211.804 323.808C211.828 323.52 211.781 323.231 211.666 322.965H211.666Z" fill="#3F3D56"/>
<path opacity="0.17" d="M153.213 323.487L153.647 324.426C153.787 324.722 154.009 324.973 154.286 325.15C154.564 325.326 154.885 325.42 155.213 325.422H210.085C210.373 325.417 210.656 325.341 210.908 325.2C211.16 325.06 211.374 324.859 211.53 324.617C211.686 324.374 211.781 324.096 211.804 323.809C211.828 323.521 211.78 323.232 211.666 322.967C211.646 322.918 211.62 322.871 211.586 322.83L153.213 323.487Z" fill="black"/>
<path opacity="0.17" d="M188.389 273.394V273.401L200.136 321.341H202.785L189.068 263.582L188.389 273.394Z" fill="black"/>
<path d="M206.816 139.236L205.095 139.005C204.623 138.944 204.146 139.072 203.767 139.361L202.739 140.152L191.286 154.479C190.908 154.771 190.661 155.202 190.6 155.676L189.958 160.551L173.973 282.179C173.916 282.629 174.029 283.085 174.291 283.457L181.822 304.217L182.047 304.542L182.533 305.234C182.783 305.585 183.15 305.837 183.568 305.944L184.659 306.219C184.907 306.281 185.165 306.289 185.416 306.244C185.668 306.199 185.907 306.101 186.118 305.957C186.329 305.814 186.508 305.628 186.641 305.411C186.775 305.194 186.86 304.95 186.891 304.697L188.842 289.872V289.866L190.089 280.352L191.143 272.328V272.322L208.374 141.256C208.437 140.783 208.308 140.304 208.018 139.926C207.727 139.547 207.298 139.299 206.825 139.237L206.816 139.236Z" fill="#3F3D56"/>
<path opacity="0.17" d="M202.736 140.155L181.821 304.222L182.048 304.543L182.533 305.233C182.783 305.585 183.15 305.837 183.568 305.944L184.661 306.219C184.908 306.28 185.165 306.289 185.416 306.244C185.667 306.199 185.906 306.101 186.116 305.958C186.327 305.814 186.505 305.628 186.638 305.411C186.772 305.194 186.859 304.952 186.892 304.699L208.373 141.26C208.435 140.785 208.306 140.305 208.015 139.926C207.723 139.546 207.293 139.298 206.818 139.235L205.093 139.008C204.859 138.977 204.621 138.992 204.393 139.053C204.165 139.114 203.951 139.221 203.765 139.365L202.736 140.155Z" fill="black"/>
<path d="M202.12 144.846L191.02 160.688L177.828 261.063L184.981 275.252L202.12 144.846Z" fill="#C776D3"/>
<path d="M310.236 284.52L303.016 316.288L298.403 321.341H295.074L308.792 263.582L309.471 273.394V273.401L310.236 284.52Z" fill="#3F3D56"/>
<path d="M344.983 316.987L302.626 316.719L298.867 316.694L296.186 316.675L293.063 316.656H293.038C292.585 316.657 292.15 316.836 291.828 317.155L286.554 322.429C286.437 322.544 286.342 322.68 286.274 322.828C286.241 322.87 286.213 322.916 286.193 322.965C286.078 323.231 286.031 323.52 286.055 323.808C286.079 324.095 286.173 324.373 286.33 324.616C286.486 324.858 286.7 325.059 286.952 325.199C287.204 325.34 287.487 325.416 287.776 325.422H342.645C342.974 325.421 343.297 325.326 343.575 325.15C343.853 324.973 344.075 324.722 344.216 324.424L344.646 323.489L345.532 321.588L346.535 319.443C346.643 319.215 346.698 318.966 346.697 318.714C346.695 318.258 346.514 317.823 346.193 317.5C345.873 317.177 345.438 316.992 344.983 316.987Z" fill="#3F3D56"/>
<path opacity="0.17" d="M344.646 323.487L344.213 324.426C344.072 324.722 343.85 324.973 343.573 325.15C343.296 325.326 342.975 325.42 342.646 325.422H287.775C287.487 325.417 287.204 325.341 286.952 325.2C286.699 325.06 286.486 324.859 286.33 324.617C286.173 324.374 286.079 324.096 286.055 323.809C286.032 323.521 286.079 323.232 286.194 322.967C286.213 322.918 286.24 322.871 286.273 322.83L344.646 323.487Z" fill="black"/>
<path opacity="0.17" d="M309.471 273.394V273.401L297.724 321.341H295.074L308.792 263.582L309.471 273.394Z" fill="black"/>
<path d="M323.886 282.18L307.259 155.678C307.198 155.204 306.951 154.773 306.573 154.481L295.126 140.154L294.098 139.362C293.717 139.074 293.238 138.946 292.764 139.007L291.043 139.238C290.568 139.299 290.138 139.546 289.845 139.925C289.553 140.304 289.423 140.783 289.484 141.258L306.716 272.33V272.336L307.77 280.354L309.023 289.874V289.886L310.968 304.699C310.999 304.953 311.085 305.197 311.219 305.414C311.354 305.632 311.534 305.817 311.747 305.958C311.957 306.103 312.195 306.201 312.445 306.246C312.696 306.291 312.953 306.282 313.2 306.22L314.291 305.946C314.709 305.838 315.075 305.587 315.326 305.235L315.812 304.543L316.037 304.219L323.568 283.458C323.832 283.088 323.946 282.631 323.886 282.18Z" fill="#3F3D56"/>
<path opacity="0.17" d="M295.124 140.155L316.039 304.222L315.811 304.543L315.327 305.233C315.077 305.585 314.71 305.837 314.292 305.944L313.199 306.219C312.952 306.28 312.694 306.289 312.443 306.244C312.193 306.199 311.954 306.101 311.743 305.958C311.533 305.814 311.355 305.628 311.221 305.411C311.088 305.194 311.001 304.952 310.968 304.699L289.487 141.26C289.425 140.785 289.553 140.305 289.845 139.926C290.136 139.546 290.567 139.297 291.041 139.235L292.766 139.008C293 138.977 293.238 138.992 293.467 139.053C293.695 139.114 293.908 139.221 294.095 139.365L295.124 140.155Z" fill="black"/>
<path d="M295.74 144.846L306.839 160.688L320.031 261.063L312.879 275.252L295.74 144.846Z" fill="#C776D3"/>
<path d="M89.4469 347.216C89.4486 347.53 89.4215 347.843 89.3658 348.151C89.3409 348.301 89.3097 348.444 89.2723 348.588C88.9687 349.747 88.2894 350.773 87.3407 351.505C86.3921 352.237 85.2275 352.634 84.0292 352.634H60.5691V408.588C60.5701 409.77 60.1824 410.92 59.4656 411.861C58.9294 411.231 58.3995 410.601 57.8758 409.966C55.0703 406.611 52.3584 403.183 49.7399 399.679V352.634H39.2661C37.8695 352.633 36.5273 352.093 35.5198 351.125C34.5123 350.158 33.9175 348.839 33.8595 347.444C33.8016 346.048 34.285 344.685 35.2089 343.637C36.1327 342.59 37.4255 341.94 38.8172 341.823C38.9668 341.811 39.1165 341.805 39.2661 341.805H84.0292C85.4651 341.804 86.8425 342.374 87.8584 343.389C88.8744 344.404 89.4457 345.78 89.4469 347.216Z" fill="#3F3D56"/>
<path d="M463.281 347.216C463.281 348.313 462.949 349.384 462.328 350.288C461.707 351.192 460.826 351.886 459.802 352.279C459.316 352.464 458.806 352.578 458.287 352.615C458.15 352.628 458.007 352.634 457.87 352.634H447.402V403.419C447.246 403.625 447.084 403.831 446.922 404.037C444.459 407.185 441.922 410.271 439.31 413.295C438.476 412.825 437.782 412.141 437.301 411.313C436.82 410.486 436.569 409.545 436.573 408.588V352.634H413.106C412.414 352.636 411.728 352.503 411.087 352.241C410.279 351.918 409.561 351.405 408.994 350.745C408.428 350.085 408.029 349.298 407.832 348.451V348.444C407.541 347.213 407.696 345.919 408.269 344.791C408.262 344.785 408.262 344.785 408.269 344.785C408.516 344.288 408.84 343.834 409.229 343.438C409.733 342.921 410.337 342.51 411.003 342.23C411.669 341.949 412.384 341.805 413.106 341.805H457.87C459.305 341.804 460.681 342.374 461.696 343.389C462.711 344.403 463.281 345.779 463.281 347.214L463.281 347.216Z" fill="#3F3D56"/>
<path d="M462.923 242.893C460.694 242.893 458.488 243.331 456.43 244.184C454.371 245.037 452.501 246.287 450.925 247.862C449.35 249.438 448.1 251.308 447.247 253.366C446.395 255.425 445.956 257.631 445.956 259.859V259.859C445.956 263.795 447.325 267.608 449.828 270.646C452.33 273.684 455.811 275.758 459.674 276.512V304.262H470.503V242.893H462.923Z" fill="#3F3D56"/>
<path d="M166.695 304.847C165.615 304.213 164.409 303.823 163.162 303.706C161.915 303.588 160.657 303.746 159.478 304.167C158.298 304.588 157.225 305.262 156.335 306.143C155.444 307.023 154.757 308.088 154.323 309.263L134.76 310.026L132.124 319.138L159.935 320.562C161.957 321.161 164.128 320.998 166.038 320.103C167.947 319.208 169.462 317.644 170.295 315.707C171.129 313.77 171.222 311.594 170.559 309.593C169.895 307.591 168.52 305.903 166.695 304.847H166.695Z" fill="#9E616A"/>
<path d="M150.626 321.542L130.531 321.292L127.987 321.257L87.1034 320.742C87.1034 320.742 76.0011 310.15 66.3337 299.245L67.6887 289.445C69.0105 279.826 73.7818 271.015 81.1147 264.652C94.9607 273.904 102.99 292.217 102.99 292.217L116.453 298.241C125.928 298.665 135.161 301.369 143.367 306.124L147.795 308.689L150.626 321.542Z" fill="#C776D3"/>
<path d="M213.761 497.391H286.242C281.298 498.114 276.309 498.685 271.274 499.105H228.73C223.692 498.687 218.703 498.116 213.761 497.391Z" fill="#CCCCCC"/>
<path d="M228.334 460.901C229.736 448.24 237.403 435.682 249.402 431.408C244.822 444.481 245.014 458.753 249.944 471.698C251.863 476.683 254.517 482.028 252.842 487.101C251.8 490.257 249.18 492.697 246.236 494.24C243.291 495.782 240.011 496.543 236.772 497.288L236.139 497.826C230.826 486.249 226.931 473.561 228.334 460.901Z" fill="#CCCCCC"/>
<path d="M249.525 431.647C242.61 439.606 238.379 449.542 237.433 460.042C237.189 462.299 237.303 464.581 237.769 466.802C238.294 468.952 239.384 470.921 240.927 472.507C242.336 474.014 243.952 475.393 244.971 477.216C245.478 478.157 245.781 479.195 245.859 480.262C245.937 481.328 245.789 482.399 245.424 483.404C244.58 485.932 242.879 488.006 241.144 489.976C239.218 492.164 237.183 494.406 236.39 497.283C236.294 497.631 235.759 497.462 235.855 497.114C237.234 492.109 242.036 489.212 244.284 484.69C245.333 482.58 245.753 480.141 244.714 477.943C243.805 476.02 242.14 474.597 240.7 473.084C239.172 471.559 238.04 469.683 237.404 467.621C236.826 465.43 236.625 463.157 236.809 460.899C237.144 455.808 238.276 450.802 240.166 446.063C242.292 440.643 245.33 435.627 249.148 431.231C249.384 430.959 249.76 431.377 249.525 431.647H249.525Z" fill="white"/>
<path d="M237.539 456.643C235.799 456.245 234.257 455.242 233.188 453.812C232.119 452.382 231.594 450.619 231.705 448.837C231.711 448.764 231.744 448.697 231.798 448.648C231.852 448.599 231.923 448.574 231.996 448.576C232.069 448.579 232.137 448.61 232.188 448.662C232.238 448.715 232.267 448.785 232.267 448.857C232.16 450.516 232.649 452.159 233.647 453.488C234.645 454.818 236.085 455.747 237.708 456.108C238.06 456.187 237.889 456.722 237.539 456.643H237.539Z" fill="white"/>
<path d="M240.112 471.836C243.22 469.924 245.493 466.91 246.477 463.397C246.575 463.048 247.11 463.218 247.013 463.565C245.981 467.22 243.61 470.351 240.371 472.334C240.062 472.523 239.805 472.024 240.112 471.836Z" fill="white"/>
<path d="M242.82 441.168C243.461 441.462 244.165 441.592 244.869 441.547C245.574 441.502 246.255 441.283 246.854 440.909C247.16 440.716 247.417 441.215 247.113 441.407C246.45 441.817 245.697 442.058 244.919 442.11C244.141 442.161 243.362 442.022 242.651 441.703C242.581 441.679 242.524 441.629 242.49 441.563C242.456 441.498 242.448 441.422 242.468 441.351C242.49 441.28 242.54 441.221 242.606 441.187C242.672 441.152 242.749 441.146 242.82 441.168L242.82 441.168Z" fill="white"/>
<path d="M286.446 453.494C286.258 453.619 286.071 453.745 285.883 453.875C283.366 455.579 280.993 457.484 278.785 459.571C278.612 459.73 278.438 459.893 278.27 460.057C273.005 465.143 268.729 471.163 265.661 477.81C264.443 480.456 263.428 483.191 262.624 485.991C261.515 489.859 260.62 494.14 258.364 497.321C258.133 497.656 257.88 497.976 257.609 498.279L236.844 498.557C236.796 498.534 236.749 498.515 236.701 498.492L235.873 498.541C235.904 498.394 235.94 498.242 235.971 498.094C235.989 498.009 236.011 497.923 236.029 497.838C236.042 497.781 236.056 497.724 236.065 497.671C236.069 497.652 236.074 497.633 236.078 497.619C236.087 497.567 236.101 497.519 236.11 497.472C236.307 496.621 236.51 495.77 236.72 494.919C236.72 494.914 236.72 494.914 236.724 494.91C238.26 488.41 240.562 482.115 243.581 476.158C243.674 475.981 243.766 475.8 243.868 475.623C245.268 472.985 246.881 470.466 248.691 468.091C249.686 466.793 250.746 465.547 251.868 464.357C254.771 461.287 258.139 458.693 261.848 456.67C269.244 452.638 277.846 451.017 285.837 453.312C286.042 453.371 286.242 453.43 286.446 453.494Z" fill="#CCCCCC"/>
<path d="M286.403 453.758C276.09 455.949 266.73 461.335 259.652 469.15C258.099 470.805 256.816 472.695 255.851 474.749C254.975 476.781 254.66 479.01 254.938 481.205C255.155 483.257 255.616 485.331 255.331 487.4C255.169 488.457 254.786 489.468 254.206 490.366C253.627 491.265 252.864 492.03 251.967 492.613C249.772 494.124 247.164 494.755 244.593 495.284C241.738 495.871 238.763 496.436 236.399 498.256C236.112 498.477 235.787 498.019 236.073 497.799C240.187 494.633 245.766 495.211 250.283 492.954C252.391 491.901 254.194 490.207 254.688 487.826C255.12 485.743 254.647 483.605 254.409 481.529C254.107 479.392 254.332 477.213 255.066 475.183C255.924 473.086 257.132 471.15 258.639 469.458C261.97 465.595 265.889 462.279 270.25 459.633C275.212 456.586 280.657 454.409 286.352 453.198C286.705 453.123 286.753 453.683 286.403 453.758H286.403Z" fill="white"/>
<path d="M261.783 466.5C260.633 465.134 260.006 463.405 260.014 461.62C260.022 459.835 260.664 458.11 261.826 456.755C262.062 456.481 262.498 456.835 262.261 457.109C261.177 458.369 260.579 459.975 260.575 461.638C260.572 463.3 261.162 464.909 262.241 466.174C262.475 466.449 262.016 466.774 261.783 466.5Z" fill="white"/>
<path d="M254.69 480.179C258.323 480.524 261.952 479.486 264.854 477.273C265.141 477.053 265.467 477.511 265.18 477.73C262.156 480.027 258.377 481.1 254.597 480.733C254.237 480.698 254.332 480.144 254.69 480.179V480.179Z" fill="white"/>
<path d="M275.317 457.322C275.652 457.943 276.136 458.472 276.725 458.859C277.314 459.247 277.991 459.483 278.694 459.544C279.054 459.575 278.959 460.128 278.601 460.098C277.825 460.026 277.078 459.765 276.426 459.338C275.774 458.911 275.236 458.331 274.86 457.648C274.819 457.587 274.803 457.512 274.815 457.439C274.827 457.367 274.867 457.301 274.925 457.257C274.986 457.214 275.061 457.197 275.135 457.209C275.208 457.221 275.273 457.262 275.317 457.322Z" fill="white"/>
<path d="M348.378 119.058C348.561 119.025 348.744 118.999 348.927 118.967C348.159 118.491 347.436 117.947 346.767 117.34L348.378 119.058Z" fill="white"/>
</svg>
