<svg width="500" height="500" viewBox="0 0 500 500" fill="none" xmlns="http://www.w3.org/2000/svg">
<circle cx="250" cy="250" r="250" fill="#F2F2F2"/>
<mask id="mask0_744_2137" style="mask-type:alpha" maskUnits="userSpaceOnUse" x="0" y="0" width="500" height="500">
<circle cx="250" cy="250" r="250" fill="#F5F5F5"/>
</mask>
<g mask="url(#mask0_744_2137)">
<g clip-path="url(#clip0_744_2137)">
<path d="M36.8384 285.26C38.1486 287.448 39.9226 289.323 42.0354 290.751C44.1482 292.179 46.5486 293.127 49.0673 293.527C51.586 293.927 54.1618 293.77 56.6133 293.068C59.0649 292.365 61.3325 291.133 63.2564 289.459L117.032 320.301L115.028 288.149L64.2689 263.79C61.2423 260.744 57.2036 258.914 52.9181 258.647C48.6327 258.38 44.3982 259.695 41.017 262.341C37.6358 264.988 35.3429 268.783 34.5728 273.007C33.8027 277.231 34.6088 281.591 36.8384 285.26Z" fill="#FFB8B8"/>
<path d="M192.525 408.815C176.574 431.142 177.144 468.495 181.595 509.376H257.015L260.294 501.725L264.666 509.376H335.715C335.715 509.376 330.249 405.536 320.412 402.257C310.575 398.978 192.525 408.815 192.525 408.815Z" fill="#2F2E41"/>
<path d="M257.015 175.551C278.144 175.551 295.272 158.422 295.272 137.294C295.272 116.165 278.144 99.0371 257.015 99.0371C235.887 99.0371 218.758 116.165 218.758 137.294C218.758 158.422 235.887 175.551 257.015 175.551Z" fill="#FFB8B8"/>
<path d="M284.666 185.477L292.147 199.816L343.893 222.883L330.291 354.514L324.566 368.145L327.659 379.982L320.202 388.718C327.687 395.491 328.638 402.582 324.566 409.915L300.737 415.374C300.737 415.374 168.242 427.156 179.409 406.63C191.609 384.202 194.716 317.967 167.782 282.572C144.916 252.523 162.471 213.531 162.471 213.531L216.71 197.322L236.661 185.477L284.666 185.477Z" fill="#3F3D56"/>
<path d="M274 81.2535C274.179 80.8731 274.469 80.5551 274.83 80.3404C275.192 80.1257 275.61 80.0241 276.03 80.0485C258.515 79.0009 240.067 81.0422 225.414 90.694C221.864 93.0323 218.517 95.8214 214.655 97.5176C214.472 97.5995 214.314 97.7272 214.196 97.8883C214.077 98.0493 214.003 98.2382 213.979 98.4367C213.955 98.6351 213.983 98.8364 214.06 99.0209C214.137 99.2053 214.26 99.3668 214.418 99.4896L214.842 99.8223C215.01 99.9535 215.138 100.128 215.213 100.327C215.288 100.526 215.307 100.742 215.268 100.951C215.229 101.16 215.133 101.355 214.991 101.513C214.85 101.672 214.667 101.789 214.463 101.851C214.251 101.915 214.062 102.039 213.918 102.208C213.774 102.376 213.681 102.583 213.65 102.802C213.62 103.022 213.652 103.246 213.745 103.447C213.837 103.649 213.985 103.82 214.171 103.94L217.423 106.042C217.586 106.146 217.721 106.289 217.815 106.459C217.909 106.629 217.959 106.819 217.96 107.013C217.961 107.207 217.913 107.398 217.821 107.569C217.729 107.74 217.596 107.885 217.433 107.991C217.158 108.161 216.869 108.307 216.569 108.429C216.382 108.499 216.217 108.616 216.088 108.769C215.96 108.921 215.873 109.104 215.836 109.3C215.799 109.496 215.813 109.699 215.877 109.887C215.941 110.076 216.053 110.246 216.201 110.379C217.609 111.632 218.689 113.211 219.347 114.978C220.43 117.796 220.625 120.864 220.808 123.878C221.928 119.53 226.673 116.97 231.156 116.71C235.638 116.45 240.01 117.929 244.372 118.992C253.874 121.301 263.742 121.681 273.392 120.109C270.115 126.685 272.879 134.53 275.661 141.33L284.666 137.471C297.032 130.49 288.418 160.019 283.795 164.073C293.235 167.346 317.942 131.022 309.994 117.244C305.859 110.077 308.794 100.832 300.665 94.0347C296.681 89.8407 288.727 91.7048 284.666 88.2191C283.067 86.8472 285.504 83.1768 283.307 82.3769C282.577 82.1113 274.12 80.9857 274 81.2535Z" fill="#2F2E41"/>
<path d="M209.198 201.025C202.178 232.191 184.173 304.959 165.906 320.178C164.748 321.271 163.359 322.092 161.841 322.578C97.6333 338.22 77.0597 298.32 77.0597 298.32C77.0597 298.32 94.2667 289.934 94.7031 273.544L129.404 284.311L159.653 216.237L164.105 212.085L164.13 212.06L209.198 201.025Z" fill="#3F3D56"/>
<path d="M346.1 488.825C347.939 487.058 349.368 484.909 350.286 482.53C351.204 480.15 351.589 477.599 351.415 475.054C351.24 472.51 350.51 470.035 349.275 467.803C348.04 465.572 346.331 463.638 344.269 462.139L362.268 402.816L331.384 411.979L319.026 466.907C316.736 470.54 315.859 474.886 316.56 479.122C317.26 483.358 319.491 487.19 322.828 489.892C326.165 492.594 330.378 493.977 334.667 493.781C338.956 493.584 343.024 491.821 346.1 488.825Z" fill="#FFB8B8"/>
<path d="M329.626 219.564L343.893 222.883C343.893 222.883 402.86 337.614 388.651 359.475C374.441 381.336 357.033 453.712 357.033 453.712C357.033 453.712 331.286 448.593 321.449 435.477L339.463 349.637L320.882 277.496L329.626 219.564Z" fill="#3F3D56"/>
<path d="M58.9649 389.936L59.4772 205.155C59.4917 201.415 60.9893 197.834 63.6411 195.197C66.293 192.559 69.8827 191.082 73.6227 191.088L213.173 191.475C216.913 191.489 220.495 192.987 223.132 195.639C225.769 198.291 227.247 201.88 227.241 205.62L226.728 390.401C226.714 394.141 225.216 397.723 222.564 400.36C219.912 402.997 216.323 404.475 212.583 404.469L73.0322 404.082C69.2922 404.067 65.7108 402.57 63.0736 399.918C60.4363 397.266 58.9587 393.676 58.9649 389.936Z" fill="#E6E6E6"/>
<path d="M69.8239 334.154L70.1533 215.36C70.1669 211.857 71.5693 208.503 74.0529 206.033C76.5365 203.564 79.8984 202.18 83.401 202.186L203.333 202.518C206.836 202.532 210.19 203.934 212.66 206.418C215.13 208.901 216.514 212.263 216.508 215.766L216.052 380.196C216.039 383.698 214.636 387.053 212.152 389.522C209.669 391.992 206.307 393.376 202.804 393.37L128.509 393.164C112.907 393.103 97.966 386.856 86.9643 375.794C75.9626 364.731 69.7984 349.756 69.8239 334.154Z" fill="white"/>
<path d="M189.591 254.366H96.0746C94.5865 254.366 93.1593 253.775 92.107 252.723C91.0548 251.671 90.4636 250.244 90.4636 248.756C90.4636 247.267 91.0548 245.84 92.107 244.788C93.1593 243.736 94.5865 243.145 96.0746 243.145H189.591C191.079 243.145 192.506 243.736 193.558 244.788C194.611 245.84 195.202 247.267 195.202 248.756C195.202 250.244 194.611 251.671 193.558 252.723C192.506 253.775 191.079 254.366 189.591 254.366Z" fill="#C776D3"/>
<path d="M116.648 228.493H96.0746C94.5865 228.493 93.1593 227.902 92.107 226.85C91.0548 225.798 90.4636 224.371 90.4636 222.882C90.4636 221.394 91.0548 219.967 92.107 218.915C93.1593 217.863 94.5865 217.271 96.0746 217.271H116.648C118.136 217.271 119.563 217.863 120.616 218.915C121.668 219.967 122.259 221.394 122.259 222.882C122.259 224.371 121.668 225.798 120.616 226.85C119.563 227.902 118.136 228.493 116.648 228.493Z" fill="#C776D3"/>
<path d="M189.591 280.24H96.0746C94.5865 280.24 93.1593 279.648 92.107 278.596C91.0548 277.544 90.4636 276.117 90.4636 274.629C90.4636 273.14 91.0548 271.713 92.107 270.661C93.1593 269.609 94.5865 269.018 96.0746 269.018H189.591C191.079 269.018 192.506 269.609 193.558 270.661C194.611 271.713 195.202 273.14 195.202 274.629C195.202 276.117 194.611 277.544 193.558 278.596C192.506 279.648 191.079 280.24 189.591 280.24Z" fill="#C776D3"/>
<path d="M189.591 306.113H96.0746C94.5865 306.113 93.1593 305.521 92.107 304.469C91.0548 303.417 90.4636 301.99 90.4636 300.502C90.4636 299.013 91.0548 297.586 92.107 296.534C93.1593 295.482 94.5865 294.891 96.0746 294.891H189.591C191.079 294.891 192.506 295.482 193.558 296.534C194.611 297.586 195.202 299.013 195.202 300.502C195.202 301.99 194.611 303.417 193.558 304.469C192.506 305.521 191.079 306.113 189.591 306.113Z" fill="#C776D3"/>
<path d="M182.024 374.285C194.354 374.285 204.35 364.289 204.35 351.959C204.35 339.629 194.354 329.633 182.024 329.633C169.694 329.633 159.698 339.629 159.698 351.959C159.698 364.289 169.694 374.285 182.024 374.285Z" fill="#C776D3"/>
<path d="M178.978 363.578C178.593 363.578 178.213 363.488 177.868 363.316C177.523 363.144 177.223 362.893 176.992 362.585L170.901 354.463C170.705 354.202 170.562 353.906 170.481 353.589C170.399 353.273 170.381 352.944 170.427 352.621C170.473 352.298 170.582 351.987 170.749 351.706C170.915 351.425 171.135 351.18 171.396 350.984C171.657 350.788 171.954 350.646 172.27 350.565C172.587 350.484 172.916 350.466 173.239 350.513C173.562 350.559 173.873 350.669 174.153 350.835C174.434 351.002 174.679 351.222 174.874 351.483L178.859 356.796L189.094 341.444C189.274 341.172 189.507 340.938 189.778 340.755C190.049 340.573 190.353 340.446 190.674 340.381C190.994 340.316 191.324 340.316 191.645 340.379C191.965 340.442 192.27 340.568 192.542 340.749C192.814 340.93 193.048 341.164 193.229 341.435C193.411 341.707 193.537 342.012 193.601 342.332C193.664 342.653 193.664 342.983 193.6 343.303C193.536 343.624 193.409 343.928 193.227 344.2L181.045 362.472C180.825 362.803 180.528 363.076 180.181 363.268C179.833 363.46 179.445 363.566 179.047 363.577C179.024 363.578 179.001 363.578 178.978 363.578Z" fill="white"/>
<path d="M134.416 148.07C140.27 148.07 145.015 143.325 145.015 137.472C145.015 131.618 140.27 126.873 134.416 126.873C128.563 126.873 123.818 131.618 123.818 137.472C123.818 143.325 128.563 148.07 134.416 148.07Z" fill="#F2F2F2"/>
<path d="M95.7629 452.931C101.616 452.931 106.361 448.186 106.361 442.333C106.361 436.479 101.616 431.734 95.7629 431.734C89.9095 431.734 85.1644 436.479 85.1644 442.333C85.1644 448.186 89.9095 452.931 95.7629 452.931Z" fill="#F2F2F2"/>
<path d="M339.528 189.217C345.382 189.217 350.127 184.471 350.127 178.618C350.127 172.765 345.382 168.02 339.528 168.02C333.675 168.02 328.93 172.765 328.93 178.618C328.93 184.471 333.675 189.217 339.528 189.217Z" fill="#F2F2F2"/>
</g>
</g>
<defs>
<clipPath id="clip0_744_2137">
<rect width="356.571" height="429.575" fill="white" transform="translate(34.2893 79.8008)"/>
</clipPath>
</defs>
</svg>
