<svg width="250" height="250" viewBox="0 0 250 250" fill="none" xmlns="http://www.w3.org/2000/svg">
<path d="M125 0C91.8479 0 60.0537 13.1696 36.6117 36.6117C13.1696 60.0537 0 91.8479 0 125C0 158.152 13.1696 189.946 36.6117 213.388C60.0537 236.83 91.8479 250 125 250C158.152 250 189.946 236.83 213.388 213.388C236.83 189.946 250 158.152 250 125C250 91.8479 236.83 60.0537 213.388 36.6117C189.946 13.1696 158.152 0 125 0V0ZM182.328 180.281C181.795 181.156 181.094 181.916 180.266 182.52C179.439 183.123 178.5 183.556 177.504 183.796C176.508 184.035 175.475 184.076 174.463 183.915C173.452 183.755 172.482 183.396 171.609 182.859C142.25 164.938 105.313 160.875 61.7969 170.828C59.7808 171.288 57.6646 170.928 55.9138 169.828C54.1629 168.728 52.9209 166.977 52.4609 164.961C52.001 162.945 52.3607 160.829 53.461 159.078C54.5613 157.327 56.3121 156.085 58.3281 155.625C105.953 144.75 146.797 149.422 179.734 169.563C181.497 170.643 182.759 172.377 183.245 174.386C183.732 176.395 183.402 178.515 182.328 180.281V180.281ZM197.625 146.25C196.271 148.452 194.099 150.026 191.585 150.627C189.071 151.227 186.422 150.805 184.219 149.453C150.625 128.812 99.4062 122.828 59.6563 134.891C57.2368 135.466 54.6891 135.096 52.5329 133.857C50.3768 132.618 48.7745 130.603 48.0529 128.223C47.3314 125.843 47.545 123.278 48.6501 121.05C49.7552 118.822 51.6686 117.1 54 116.234C99.3906 102.469 155.828 109.141 194.406 132.844C196.611 134.195 198.188 136.366 198.792 138.88C199.395 141.394 198.976 144.045 197.625 146.25V146.25ZM198.938 110.813C158.656 86.875 92.1875 84.6719 53.7187 96.3437C50.7516 97.243 47.5488 96.9267 44.8149 95.4645C42.081 94.0023 40.0399 91.514 39.1406 88.5469C38.2414 85.5798 38.5576 82.377 40.0198 79.643C41.482 76.9091 43.9704 74.868 46.9375 73.9688C91.0781 60.5781 164.484 63.1562 210.875 90.6875C213.544 92.2705 215.474 94.8488 216.242 97.8553C217.01 100.862 216.552 104.05 214.969 106.719C213.386 109.387 210.807 111.318 207.801 112.086C204.795 112.854 201.606 112.396 198.938 110.813V110.813Z" fill="#1EC95D"/>
</svg>
