<svg width="60" height="60" viewBox="0 0 60 60" fill="none" xmlns="http://www.w3.org/2000/svg">
<path d="M0 30C0 13.4315 13.4315 0 30 0C46.5685 0 60 13.4315 60 30C60 46.5685 46.5685 60 30 60C13.4315 60 0 46.5685 0 30Z" fill="#313131"/>
<path d="M30 45C38.2843 45 45 38.2843 45 30C45 21.7157 38.2843 15 30 15C21.7157 15 15 21.7157 15 30C15 38.2843 21.7157 45 30 45Z" stroke="#FFFEF7" stroke-width="3"/>
<path d="M24 32.25L30 26.25L36 32.25" stroke="#FFFEF7" stroke-width="3" stroke-linecap="round" stroke-linejoin="round"/>
</svg>
